<svg width="370" height="88" viewBox="0 0 370 88" fill="none" xmlns="http://www.w3.org/2000/svg">
<rect width="370" height="88" rx="24" fill="#00D17E" fill-opacity="0.05"/>
<rect x="0.5" y="0.5" width="369" height="87" rx="23.5" stroke="#00D17E" stroke-opacity="0.3" stroke-dasharray="3 2"/>
<path d="M108.005 50.7084C107.519 50.7084 107.106 50.5383 106.765 50.198C106.425 49.8577 106.255 49.4445 106.255 48.9584C106.255 48.4723 106.425 48.0591 106.765 47.7188C107.106 47.3786 107.519 47.2084 108.005 47.2084C108.141 47.2084 108.267 47.223 108.384 47.2522C108.501 47.2813 108.613 47.3202 108.719 47.3688L109.551 46.3334C109.278 46.032 109.089 45.6917 108.982 45.3126C108.875 44.9334 108.851 44.5542 108.909 44.1751L107.728 43.7813C107.563 44.0244 107.353 44.2188 107.101 44.3647C106.848 44.5105 106.566 44.5834 106.255 44.5834C105.769 44.5834 105.356 44.4133 105.015 44.073C104.675 43.7327 104.505 43.3195 104.505 42.8334C104.505 42.3473 104.675 41.9341 105.015 41.5938C105.356 41.2536 105.769 41.0834 106.255 41.0834C106.741 41.0834 107.154 41.2536 107.494 41.5938C107.835 41.9341 108.005 42.3473 108.005 42.8334C108.005 42.8529 108.005 42.8723 108.005 42.8917C108.005 42.9112 108.005 42.9306 108.005 42.9501L109.186 43.3584C109.381 43.0084 109.641 42.7119 109.966 42.4688C110.292 42.2258 110.659 42.0702 111.067 42.0022V40.7334C110.688 40.6265 110.375 40.4199 110.127 40.1136C109.879 39.8074 109.755 39.4501 109.755 39.0417C109.755 38.5556 109.925 38.1424 110.265 37.8022C110.606 37.4619 111.019 37.2917 111.505 37.2917C111.991 37.2917 112.404 37.4619 112.744 37.8022C113.085 38.1424 113.255 38.5556 113.255 39.0417C113.255 39.4501 113.128 39.8074 112.876 40.1136C112.623 40.4199 112.312 40.6265 111.942 40.7334V42.0022C112.351 42.0702 112.718 42.2258 113.043 42.4688C113.369 42.7119 113.629 43.0084 113.824 43.3584L115.005 42.9501C115.005 42.9306 115.005 42.9112 115.005 42.8917C115.005 42.8723 115.005 42.8529 115.005 42.8334C115.005 42.3473 115.175 41.9341 115.515 41.5938C115.856 41.2536 116.269 41.0834 116.755 41.0834C117.241 41.0834 117.654 41.2536 117.994 41.5938C118.335 41.9341 118.505 42.3473 118.505 42.8334C118.505 43.3195 118.335 43.7327 117.994 44.073C117.654 44.4133 117.241 44.5834 116.755 44.5834C116.444 44.5834 116.159 44.5105 115.902 44.3647C115.644 44.2188 115.438 44.0244 115.282 43.7813L114.101 44.1751C114.159 44.5542 114.135 44.931 114.028 45.3053C113.921 45.6796 113.731 46.0223 113.459 46.3334L114.29 47.3542C114.397 47.3056 114.509 47.2692 114.626 47.2449C114.742 47.2206 114.869 47.2084 115.005 47.2084C115.491 47.2084 115.904 47.3786 116.244 47.7188C116.585 48.0591 116.755 48.4723 116.755 48.9584C116.755 49.4445 116.585 49.8577 116.244 50.198C115.904 50.5383 115.491 50.7084 115.005 50.7084C114.519 50.7084 114.106 50.5383 113.765 50.198C113.425 49.8577 113.255 49.4445 113.255 48.9584C113.255 48.764 113.286 48.5768 113.35 48.397C113.413 48.2171 113.498 48.0542 113.605 47.9084L112.774 46.873C112.375 47.0966 111.95 47.2084 111.498 47.2084C111.046 47.2084 110.62 47.0966 110.222 46.873L109.405 47.9084C109.512 48.0542 109.597 48.2171 109.66 48.397C109.723 48.5768 109.755 48.764 109.755 48.9584C109.755 49.4445 109.585 49.8577 109.244 50.198C108.904 50.5383 108.491 50.7084 108.005 50.7084ZM106.255 43.4167C106.42 43.4167 106.559 43.3608 106.671 43.249C106.782 43.1372 106.838 42.9987 106.838 42.8334C106.838 42.6681 106.782 42.5296 106.671 42.4178C106.559 42.306 106.42 42.2501 106.255 42.2501C106.09 42.2501 105.951 42.306 105.839 42.4178C105.727 42.5296 105.672 42.6681 105.672 42.8334C105.672 42.9987 105.727 43.1372 105.839 43.249C105.951 43.3608 106.09 43.4167 106.255 43.4167ZM108.005 49.5417C108.17 49.5417 108.309 49.4858 108.421 49.374C108.532 49.2622 108.588 49.1237 108.588 48.9584C108.588 48.7931 108.532 48.6546 108.421 48.5428C108.309 48.431 108.17 48.3751 108.005 48.3751C107.84 48.3751 107.701 48.431 107.589 48.5428C107.477 48.6546 107.422 48.7931 107.422 48.9584C107.422 49.1237 107.477 49.2622 107.589 49.374C107.701 49.4858 107.84 49.5417 108.005 49.5417ZM111.505 39.6251C111.67 39.6251 111.809 39.5692 111.921 39.4574C112.032 39.3456 112.088 39.207 112.088 39.0417C112.088 38.8765 112.032 38.7379 111.921 38.6261C111.809 38.5143 111.67 38.4584 111.505 38.4584C111.34 38.4584 111.201 38.5143 111.089 38.6261C110.977 38.7379 110.922 38.8765 110.922 39.0417C110.922 39.207 110.977 39.3456 111.089 39.4574C111.201 39.5692 111.34 39.6251 111.505 39.6251ZM111.505 46.0417C111.913 46.0417 112.258 45.9008 112.54 45.6188C112.822 45.3369 112.963 44.9917 112.963 44.5834C112.963 44.1751 112.822 43.8299 112.54 43.548C112.258 43.2661 111.913 43.1251 111.505 43.1251C111.097 43.1251 110.751 43.2661 110.469 43.548C110.188 43.8299 110.047 44.1751 110.047 44.5834C110.047 44.9917 110.188 45.3369 110.469 45.6188C110.751 45.9008 111.097 46.0417 111.505 46.0417ZM115.005 49.5417C115.17 49.5417 115.309 49.4858 115.421 49.374C115.532 49.2622 115.588 49.1237 115.588 48.9584C115.588 48.7931 115.532 48.6546 115.421 48.5428C115.309 48.431 115.17 48.3751 115.005 48.3751C114.84 48.3751 114.701 48.431 114.589 48.5428C114.477 48.6546 114.422 48.7931 114.422 48.9584C114.422 49.1237 114.477 49.2622 114.589 49.374C114.701 49.4858 114.84 49.5417 115.005 49.5417ZM116.755 43.4167C116.92 43.4167 117.059 43.3608 117.171 43.249C117.282 43.1372 117.338 42.9987 117.338 42.8334C117.338 42.6681 117.282 42.5296 117.171 42.4178C117.059 42.306 116.92 42.2501 116.755 42.2501C116.59 42.2501 116.451 42.306 116.339 42.4178C116.227 42.5296 116.172 42.6681 116.172 42.8334C116.172 42.9987 116.227 43.1372 116.339 43.249C116.451 43.3608 116.59 43.4167 116.755 43.4167Z" fill="#25D16F"/>
<path d="M132.053 50.225C130.973 50.225 130.053 49.99 129.293 49.52C128.533 49.045 127.95 48.385 127.545 47.54C127.145 46.695 126.945 45.715 126.945 44.6C126.945 43.485 127.145 42.505 127.545 41.66C127.95 40.815 128.533 40.1575 129.293 39.6875C130.053 39.2125 130.973 38.975 132.053 38.975C133.298 38.975 134.328 39.29 135.143 39.92C135.963 40.55 136.533 41.3975 136.853 42.4625L135.263 42.89C135.053 42.135 134.678 41.5425 134.138 41.1125C133.603 40.6825 132.908 40.4675 132.053 40.4675C131.288 40.4675 130.65 40.64 130.14 40.985C129.63 41.33 129.245 41.8125 128.985 42.4325C128.73 43.0525 128.603 43.775 128.603 44.6C128.598 45.425 128.723 46.1475 128.978 46.7675C129.238 47.3875 129.623 47.87 130.133 48.215C130.648 48.56 131.288 48.7325 132.053 48.7325C132.908 48.7325 133.603 48.5175 134.138 48.0875C134.678 47.6525 135.053 47.06 135.263 46.31L136.853 46.7375C136.533 47.8025 135.963 48.65 135.143 49.28C134.328 49.91 133.298 50.225 132.053 50.225ZM142.02 50.225C141.21 50.225 140.507 50.0425 139.912 49.6775C139.317 49.3125 138.857 48.81 138.532 48.17C138.212 47.525 138.052 46.7825 138.052 45.9425C138.052 45.0975 138.217 44.355 138.547 43.715C138.877 43.07 139.34 42.57 139.935 42.215C140.53 41.855 141.225 41.675 142.02 41.675C142.83 41.675 143.532 41.8575 144.127 42.2225C144.722 42.5875 145.182 43.09 145.507 43.73C145.832 44.37 145.995 45.1075 145.995 45.9425C145.995 46.7875 145.83 47.5325 145.5 48.1775C145.175 48.8175 144.715 49.32 144.12 49.685C143.525 50.045 142.825 50.225 142.02 50.225ZM142.02 48.7475C142.795 48.7475 143.372 48.4875 143.752 47.9675C144.137 47.4425 144.33 46.7675 144.33 45.9425C144.33 45.0975 144.135 44.4225 143.745 43.9175C143.36 43.4075 142.785 43.1525 142.02 43.1525C141.495 43.1525 141.062 43.2725 140.722 43.5125C140.382 43.7475 140.13 44.075 139.965 44.495C139.8 44.91 139.717 45.3925 139.717 45.9425C139.717 46.7925 139.912 47.4725 140.302 47.9825C140.692 48.4925 141.265 48.7475 142.02 48.7475ZM153.328 50V46.0175C153.328 45.7025 153.3 45.38 153.245 45.05C153.195 44.715 153.095 44.405 152.945 44.12C152.8 43.835 152.593 43.605 152.323 43.43C152.058 43.255 151.71 43.1675 151.28 43.1675C151 43.1675 150.735 43.215 150.485 43.31C150.235 43.4 150.015 43.5475 149.825 43.7525C149.64 43.9575 149.493 44.2275 149.383 44.5625C149.278 44.8975 149.225 45.305 149.225 45.785L148.25 45.4175C148.25 44.6825 148.388 44.035 148.663 43.475C148.938 42.91 149.333 42.47 149.848 42.155C150.363 41.84 150.985 41.6825 151.715 41.6825C152.275 41.6825 152.745 41.7725 153.125 41.9525C153.505 42.1325 153.813 42.37 154.048 42.665C154.288 42.955 154.47 43.2725 154.595 43.6175C154.72 43.9625 154.805 44.3 154.85 44.63C154.895 44.96 154.918 45.25 154.918 45.5V50H153.328ZM147.635 50V41.9H149.038V44.24H149.225V50H147.635ZM162.556 50V46.0175C162.556 45.7025 162.529 45.38 162.474 45.05C162.424 44.715 162.324 44.405 162.174 44.12C162.029 43.835 161.821 43.605 161.551 43.43C161.286 43.255 160.939 43.1675 160.509 43.1675C160.229 43.1675 159.964 43.215 159.714 43.31C159.464 43.4 159.244 43.5475 159.054 43.7525C158.869 43.9575 158.721 44.2275 158.611 44.5625C158.506 44.8975 158.454 45.305 158.454 45.785L157.479 45.4175C157.479 44.6825 157.616 44.035 157.891 43.475C158.166 42.91 158.561 42.47 159.076 42.155C159.591 41.84 160.214 41.6825 160.944 41.6825C161.504 41.6825 161.974 41.7725 162.354 41.9525C162.734 42.1325 163.041 42.37 163.276 42.665C163.516 42.955 163.699 43.2725 163.824 43.6175C163.949 43.9625 164.034 44.3 164.079 44.63C164.124 44.96 164.146 45.25 164.146 45.5V50H162.556ZM156.864 50V41.9H158.266V44.24H158.454V50H156.864ZM169.59 50.225C168.785 50.225 168.077 50.05 167.467 49.7C166.862 49.345 166.39 48.8525 166.05 48.2225C165.715 47.5875 165.547 46.8525 165.547 46.0175C165.547 45.1325 165.712 44.365 166.042 43.715C166.377 43.065 166.842 42.5625 167.437 42.2075C168.032 41.8525 168.725 41.675 169.515 41.675C170.34 41.675 171.042 41.8675 171.622 42.2525C172.202 42.6325 172.635 43.175 172.92 43.88C173.21 44.585 173.325 45.4225 173.265 46.3925H171.697V45.8225C171.687 44.8825 171.507 44.1875 171.157 43.7375C170.812 43.2875 170.285 43.0625 169.575 43.0625C168.79 43.0625 168.2 43.31 167.805 43.805C167.41 44.3 167.212 45.015 167.212 45.95C167.212 46.84 167.41 47.53 167.805 48.02C168.2 48.505 168.77 48.7475 169.515 48.7475C170.005 48.7475 170.427 48.6375 170.782 48.4175C171.142 48.1925 171.422 47.8725 171.622 47.4575L173.16 47.945C172.845 48.67 172.367 49.2325 171.727 49.6325C171.087 50.0275 170.375 50.225 169.59 50.225ZM166.702 46.3925V45.17H172.485V46.3925H166.702ZM178.412 50.225C177.582 50.225 176.877 50.04 176.297 49.67C175.717 49.3 175.272 48.7925 174.962 48.1475C174.657 47.5025 174.502 46.77 174.497 45.95C174.502 45.115 174.662 44.3775 174.977 43.7375C175.292 43.0925 175.742 42.5875 176.327 42.2225C176.912 41.8575 177.615 41.675 178.435 41.675C179.32 41.675 180.075 41.895 180.7 42.335C181.33 42.775 181.745 43.3775 181.945 44.1425L180.385 44.5925C180.23 44.1375 179.975 43.785 179.62 43.535C179.27 43.28 178.867 43.1525 178.412 43.1525C177.897 43.1525 177.475 43.275 177.145 43.52C176.815 43.76 176.57 44.09 176.41 44.51C176.25 44.93 176.167 45.41 176.162 45.95C176.167 46.785 176.357 47.46 176.732 47.975C177.112 48.49 177.672 48.7475 178.412 48.7475C178.917 48.7475 179.325 48.6325 179.635 48.4025C179.95 48.1675 180.19 47.8325 180.355 47.3975L181.945 47.7725C181.68 48.5625 181.242 49.17 180.632 49.595C180.022 50.015 179.282 50.225 178.412 50.225ZM188.108 50C187.598 50.1 187.098 50.1425 186.608 50.1275C186.118 50.1125 185.68 50.0175 185.295 49.8425C184.91 49.6675 184.62 49.3925 184.425 49.0175C184.25 48.6825 184.155 48.3425 184.14 47.9975C184.13 47.6475 184.125 47.2525 184.125 46.8125V39.65H185.7V46.7375C185.7 47.0625 185.703 47.345 185.708 47.585C185.718 47.825 185.77 48.0275 185.865 48.1925C186.045 48.5025 186.33 48.68 186.72 48.725C187.115 48.765 187.578 48.7475 188.108 48.6725V50ZM182.573 43.16V41.9H188.108V43.16H182.573ZM194.701 50V40.925L192.669 42.1625V40.415L194.701 39.2H196.299V50H194.701ZM202.912 50.225C202.177 50.225 201.527 50.065 200.962 49.745C200.397 49.42 199.952 48.975 199.627 48.41C199.307 47.845 199.147 47.195 199.147 46.46V42.74C199.147 42.005 199.307 41.355 199.627 40.79C199.952 40.225 200.397 39.7825 200.962 39.4625C201.527 39.1375 202.177 38.975 202.912 38.975C203.647 38.975 204.297 39.1375 204.862 39.4625C205.427 39.7825 205.869 40.225 206.189 40.79C206.514 41.355 206.677 42.005 206.677 42.74V46.46C206.677 47.195 206.514 47.845 206.189 48.41C205.869 48.975 205.427 49.42 204.862 49.745C204.297 50.065 203.647 50.225 202.912 50.225ZM202.912 48.725C203.312 48.725 203.674 48.63 203.999 48.44C204.329 48.245 204.592 47.985 204.787 47.66C204.982 47.33 205.079 46.9625 205.079 46.5575V42.6275C205.079 42.2275 204.982 41.865 204.787 41.54C204.592 41.21 204.329 40.95 203.999 40.76C203.674 40.565 203.312 40.4675 202.912 40.4675C202.512 40.4675 202.147 40.565 201.817 40.76C201.492 40.95 201.232 41.21 201.037 41.54C200.842 41.865 200.744 42.2275 200.744 42.6275V46.5575C200.744 46.9625 200.842 47.33 201.037 47.66C201.232 47.985 201.492 48.245 201.817 48.44C202.147 48.63 202.512 48.725 202.912 48.725ZM212.536 50.225C211.801 50.225 211.151 50.065 210.586 49.745C210.021 49.42 209.576 48.975 209.251 48.41C208.931 47.845 208.771 47.195 208.771 46.46V42.74C208.771 42.005 208.931 41.355 209.251 40.79C209.576 40.225 210.021 39.7825 210.586 39.4625C211.151 39.1375 211.801 38.975 212.536 38.975C213.271 38.975 213.921 39.1375 214.486 39.4625C215.051 39.7825 215.493 40.225 215.813 40.79C216.138 41.355 216.301 42.005 216.301 42.74V46.46C216.301 47.195 216.138 47.845 215.813 48.41C215.493 48.975 215.051 49.42 214.486 49.745C213.921 50.065 213.271 50.225 212.536 50.225ZM212.536 48.725C212.936 48.725 213.298 48.63 213.623 48.44C213.953 48.245 214.216 47.985 214.411 47.66C214.606 47.33 214.703 46.9625 214.703 46.5575V42.6275C214.703 42.2275 214.606 41.865 214.411 41.54C214.216 41.21 213.953 40.95 213.623 40.76C213.298 40.565 212.936 40.4675 212.536 40.4675C212.136 40.4675 211.771 40.565 211.441 40.76C211.116 40.95 210.856 41.21 210.661 41.54C210.466 41.865 210.368 42.2275 210.368 42.6275V46.5575C210.368 46.9625 210.466 47.33 210.661 47.66C210.856 47.985 211.116 48.245 211.441 48.44C211.771 48.63 212.136 48.725 212.536 48.725ZM221.02 47.9975V45.2225H218.245V43.9625H221.02V41.2025H222.28V43.9625H225.047V45.2225H222.28V47.9975H221.02ZM229.246 50L232.756 39.2H235.014L238.524 50H236.896L233.664 40.145H234.069L230.874 50H229.246ZM231.069 47.5625V46.0925H236.709V47.5625H231.069ZM243.672 50.225C242.897 50.225 242.247 50.0375 241.722 49.6625C241.197 49.2825 240.799 48.77 240.529 48.125C240.259 47.48 240.124 46.7525 240.124 45.9425C240.124 45.1325 240.257 44.405 240.522 43.76C240.792 43.115 241.187 42.6075 241.707 42.2375C242.232 41.8625 242.877 41.675 243.642 41.675C244.402 41.675 245.057 41.8625 245.607 42.2375C246.162 42.6075 246.589 43.115 246.889 43.76C247.189 44.4 247.339 45.1275 247.339 45.9425C247.339 46.7525 247.189 47.4825 246.889 48.1325C246.594 48.7775 246.172 49.2875 245.622 49.6625C245.077 50.0375 244.427 50.225 243.672 50.225ZM239.862 53.6V41.9H241.257V47.7275H241.437V53.6H239.862ZM243.454 48.8075C243.954 48.8075 244.367 48.68 244.692 48.425C245.022 48.17 245.267 47.8275 245.427 47.3975C245.592 46.9625 245.674 46.4775 245.674 45.9425C245.674 45.4125 245.592 44.9325 245.427 44.5025C245.267 44.0725 245.019 43.73 244.684 43.475C244.349 43.22 243.922 43.0925 243.402 43.0925C242.912 43.0925 242.507 43.2125 242.187 43.4525C241.872 43.6925 241.637 44.0275 241.482 44.4575C241.332 44.8875 241.257 45.3825 241.257 45.9425C241.257 46.5025 241.332 46.9975 241.482 47.4275C241.632 47.8575 241.869 48.195 242.194 48.44C242.519 48.685 242.939 48.8075 243.454 48.8075ZM252.798 50.225C252.023 50.225 251.373 50.0375 250.848 49.6625C250.323 49.2825 249.925 48.77 249.655 48.125C249.385 47.48 249.25 46.7525 249.25 45.9425C249.25 45.1325 249.383 44.405 249.648 43.76C249.918 43.115 250.313 42.6075 250.833 42.2375C251.358 41.8625 252.003 41.675 252.768 41.675C253.528 41.675 254.183 41.8625 254.733 42.2375C255.288 42.6075 255.715 43.115 256.015 43.76C256.315 44.4 256.465 45.1275 256.465 45.9425C256.465 46.7525 256.315 47.4825 256.015 48.1325C255.72 48.7775 255.298 49.2875 254.748 49.6625C254.203 50.0375 253.553 50.225 252.798 50.225ZM248.988 53.6V41.9H250.383V47.7275H250.563V53.6H248.988ZM252.58 48.8075C253.08 48.8075 253.493 48.68 253.818 48.425C254.148 48.17 254.393 47.8275 254.553 47.3975C254.718 46.9625 254.8 46.4775 254.8 45.9425C254.8 45.4125 254.718 44.9325 254.553 44.5025C254.393 44.0725 254.145 43.73 253.81 43.475C253.475 43.22 253.048 43.0925 252.528 43.0925C252.038 43.0925 251.633 43.2125 251.313 43.4525C250.998 43.6925 250.763 44.0275 250.608 44.4575C250.458 44.8875 250.383 45.3825 250.383 45.9425C250.383 46.5025 250.458 46.9975 250.608 47.4275C250.758 47.8575 250.995 48.195 251.32 48.44C251.645 48.685 252.065 48.8075 252.58 48.8075ZM261.072 50.2175C260.087 50.2175 259.285 50 258.665 49.565C258.045 49.13 257.665 48.5175 257.525 47.7275L259.13 47.48C259.23 47.9 259.46 48.2325 259.82 48.4775C260.185 48.7175 260.637 48.8375 261.177 48.8375C261.667 48.8375 262.05 48.7375 262.325 48.5375C262.605 48.3375 262.745 48.0625 262.745 47.7125C262.745 47.5075 262.695 47.3425 262.595 47.2175C262.5 47.0875 262.297 46.965 261.987 46.85C261.677 46.735 261.205 46.5925 260.57 46.4225C259.875 46.2425 259.322 46.05 258.912 45.845C258.507 45.635 258.217 45.3925 258.042 45.1175C257.872 44.8375 257.787 44.5 257.787 44.105C257.787 43.615 257.917 43.1875 258.177 42.8225C258.437 42.4575 258.802 42.175 259.272 41.975C259.747 41.775 260.302 41.675 260.937 41.675C261.557 41.675 262.11 41.7725 262.595 41.9675C263.08 42.1625 263.472 42.44 263.772 42.8C264.072 43.155 264.252 43.5725 264.312 44.0525L262.707 44.345C262.652 43.955 262.47 43.6475 262.16 43.4225C261.85 43.1975 261.447 43.075 260.952 43.055C260.477 43.035 260.092 43.115 259.797 43.295C259.502 43.47 259.355 43.7125 259.355 44.0225C259.355 44.2025 259.41 44.355 259.52 44.48C259.635 44.605 259.855 44.725 260.18 44.84C260.505 44.955 260.985 45.0925 261.62 45.2525C262.3 45.4275 262.84 45.6225 263.24 45.8375C263.64 46.0475 263.925 46.3 264.095 46.595C264.27 46.885 264.357 47.2375 264.357 47.6525C264.357 48.4525 264.065 49.08 263.48 49.535C262.9 49.99 262.097 50.2175 261.072 50.2175Z" fill="#25D16F"/>
</svg>
