<svg width="218" height="120" viewBox="0 0 218 120" fill="none" xmlns="http://www.w3.org/2000/svg">
<rect x="20" y="10" width="177" height="80" rx="24" fill="white"/>
<g filter="url(#filter0_d_232_1714)">
<rect x="20" y="10" width="177.33" height="80" rx="24" fill="white" fill-opacity="0.01" shape-rendering="crispEdges"/>
</g>
<g clip-path="url(#clip0_232_1714)">
<path d="M124.5 61.7148V38.2725C124.5 35.9157 122.6 34 120.263 34C117.925 34 116.025 35.9157 116.025 38.2725V51.3927L123.263 58.69C124.088 59.5219 124.5 60.6184 124.5 61.7148Z" fill="#2DB2C4"/>
<path d="M105.588 46.7546L100.888 51.4809V61.8031C100.888 62.9878 100.413 64.0465 99.6504 64.8279L108.588 55.8291L105.588 52.8043C103.938 51.128 103.938 48.4309 105.588 46.7546Z" fill="#E45026"/>
<path d="M116.1 51.481L111.425 46.7673C113.075 48.431 113.075 51.1407 111.425 52.817L108.425 55.8418L117.35 64.8406C116.587 64.0718 116.137 62.9753 116.112 61.8158V51.481H116.1Z" fill="#694EA0"/>
<path d="M105.5 52.8799L108.5 55.9047L111.5 52.8799C113.15 51.2162 113.15 48.5065 111.5 46.8303C109.85 45.1666 107.163 45.1666 105.5 46.8303C103.85 48.5065 103.85 51.2036 105.5 52.8799Z" fill="#801434"/>
<path d="M100.975 51.3926L95.2 57.2153C94.35 58.0724 93.2375 58.9168 92.8125 60.1015C92.2625 61.4753 92.4625 63.0759 93.35 64.2732C94.225 65.458 95.775 66.189 97.25 65.9621C98.675 65.7352 99.925 64.916 100.562 63.5801C100.887 62.8995 101.012 62.2189 100.987 61.4375V57.2532C100.975 55.287 100.975 53.3461 100.975 51.3926Z" fill="#D02F28"/>
<path d="M116.025 51.3926V59.6352C116.025 60.8451 115.875 62.2063 116.338 63.3406C116.875 64.6513 118.1 65.6974 119.5 65.9243C120.988 66.1511 122.5 65.6596 123.475 64.4875C124.425 63.3532 124.713 61.7652 124.275 60.3536C124.05 59.6226 123.613 59.0302 123.05 58.4883L120.113 55.5265C118.75 54.1527 117.388 52.779 116.025 51.3926Z" fill="#263D81"/>
<path d="M100.975 51.3927V38.2725C100.975 35.9157 99.075 34 96.7375 34C94.4 34 92.5 35.9157 92.5 38.2725V61.7148C92.5 60.6184 92.9125 59.5219 93.7375 58.69L100.975 51.3927Z" fill="#F99D22"/>
<path d="M109.763 48.5948C109.075 47.9017 107.938 47.9017 107.25 48.5948C106.562 49.288 106.562 50.4349 107.25 51.1281C107.938 51.8213 109.075 51.8213 109.763 51.1281C110.45 50.4349 110.438 49.2754 109.763 48.5948Z" fill="white"/>
<path d="M96.7379 40.0623C97.7182 40.0623 98.5129 39.261 98.5129 38.2726C98.5129 37.2842 97.7182 36.4829 96.7379 36.4829C95.7576 36.4829 94.9629 37.2842 94.9629 38.2726C94.9629 39.261 95.7576 40.0623 96.7379 40.0623Z" fill="white"/>
<path d="M120.262 40.0623C121.243 40.0623 122.037 39.261 122.037 38.2726C122.037 37.2842 121.243 36.4829 120.262 36.4829C119.282 36.4829 118.487 37.2842 118.487 38.2726C118.487 39.261 119.282 40.0623 120.262 40.0623Z" fill="white"/>
<path d="M96.7379 63.5044C97.7182 63.5044 98.5129 62.7031 98.5129 61.7147C98.5129 60.7263 97.7182 59.925 96.7379 59.925C95.7576 59.925 94.9629 60.7263 94.9629 61.7147C94.9629 62.7031 95.7576 63.5044 96.7379 63.5044Z" fill="white"/>
<path d="M120.262 63.5044C121.243 63.5044 122.037 62.7031 122.037 61.7147C122.037 60.7263 121.243 59.925 120.262 59.925C119.282 59.925 118.487 60.7263 118.487 61.7147C118.487 62.7031 119.282 63.5044 120.262 63.5044Z" fill="white"/>
</g>
<defs>
<filter id="filter0_d_232_1714" x="0" y="0" width="217.33" height="120" filterUnits="userSpaceOnUse" color-interpolation-filters="sRGB">
<feFlood flood-opacity="0" result="BackgroundImageFix"/>
<feColorMatrix in="SourceAlpha" type="matrix" values="0 0 0 0 0 0 0 0 0 0 0 0 0 0 0 0 0 0 127 0" result="hardAlpha"/>
<feMorphology radius="10" operator="erode" in="SourceAlpha" result="effect1_dropShadow_232_1714"/>
<feOffset dy="10"/>
<feGaussianBlur stdDeviation="15"/>
<feComposite in2="hardAlpha" operator="out"/>
<feColorMatrix type="matrix" values="0 0 0 0 0 0 0 0 0 0 0 0 0 0 0 0 0 0 0.04 0"/>
<feBlend mode="normal" in2="BackgroundImageFix" result="effect1_dropShadow_232_1714"/>
<feBlend mode="normal" in="SourceGraphic" in2="effect1_dropShadow_232_1714" result="shape"/>
</filter>
<clipPath id="clip0_232_1714">
<rect width="32" height="32" fill="white" transform="translate(92.5 34)"/>
</clipPath>
</defs>
</svg>
