<svg width="218" height="120" viewBox="0 0 218 120" fill="none" xmlns="http://www.w3.org/2000/svg">
<rect x="20" y="10" width="177" height="80" rx="24" fill="white"/>
<g filter="url(#filter0_d_232_1709)">
<rect x="20" y="10" width="177.33" height="80" rx="24" fill="white" fill-opacity="0.01" shape-rendering="crispEdges"/>
</g>
<g clip-path="url(#clip0_232_1709)">
<path d="M102.454 34.0535C102.454 34.0535 96.5215 34.0535 96.5215 40.0449V61.0139C96.5215 61.0139 102.454 61.1337 102.454 55.1127V41.5423C102.454 40.7151 103.118 40.0448 103.937 40.0448H108.328C114.082 40.0449 114.201 34.0535 114.201 34.0535H102.454Z" fill="#27CCF5"/>
<path d="M114.502 44.882V58.4519C114.502 59.2792 113.838 59.9495 113.02 59.9495H108.63C102.875 59.9495 102.756 65.9408 102.756 65.9408H114.502C114.502 65.9408 120.435 65.9408 120.435 59.9495V38.9804C120.435 38.9804 114.502 38.8607 114.502 44.882Z" fill="#22E071"/>
</g>
<defs>
<filter id="filter0_d_232_1709" x="0" y="0" width="217.33" height="120" filterUnits="userSpaceOnUse" color-interpolation-filters="sRGB">
<feFlood flood-opacity="0" result="BackgroundImageFix"/>
<feColorMatrix in="SourceAlpha" type="matrix" values="0 0 0 0 0 0 0 0 0 0 0 0 0 0 0 0 0 0 127 0" result="hardAlpha"/>
<feMorphology radius="10" operator="erode" in="SourceAlpha" result="effect1_dropShadow_232_1709"/>
<feOffset dy="10"/>
<feGaussianBlur stdDeviation="15"/>
<feComposite in2="hardAlpha" operator="out"/>
<feColorMatrix type="matrix" values="0 0 0 0 0 0 0 0 0 0 0 0 0 0 0 0 0 0 0.04 0"/>
<feBlend mode="normal" in2="BackgroundImageFix" result="effect1_dropShadow_232_1709"/>
<feBlend mode="normal" in="SourceGraphic" in2="effect1_dropShadow_232_1709" result="shape"/>
</filter>
<clipPath id="clip0_232_1709">
<rect width="24" height="32" fill="white" transform="translate(96.5 34)"/>
</clipPath>
</defs>
</svg>
