<svg width="218" height="120" viewBox="0 0 218 120" fill="none" xmlns="http://www.w3.org/2000/svg">
<rect x="20" y="10" width="177" height="80" rx="24" fill="white"/>
<g filter="url(#filter0_d_232_1729)">
<rect x="20" y="10" width="177.33" height="80" rx="24" fill="white" fill-opacity="0.01" shape-rendering="crispEdges"/>
</g>
<g clip-path="url(#clip0_232_1729)">
<path d="M108.5 66C117.337 66 124.5 58.8366 124.5 50C124.5 41.1634 117.337 34 108.5 34C99.6634 34 92.5 41.1634 92.5 50C92.5 58.8366 99.6634 66 108.5 66Z" fill="#FD875E"/>
<path d="M106.16 51.386L108.546 44.274L110.976 51.386H106.16ZM116.272 55.883L114.299 50.574H115.477C115.7 50.574 115.914 50.4864 116.073 50.33C116.232 50.1736 116.323 49.961 116.327 49.738C116.327 49.528 116.241 49.325 116.09 49.177C115.939 49.029 115.732 48.944 115.517 48.944H113.677L113.382 48.118H115.477C115.695 48.1197 115.906 48.0364 116.063 47.8858C116.221 47.7352 116.314 47.529 116.323 47.311C116.324 47.089 116.235 46.877 116.075 46.721C115.915 46.565 115.699 46.477 115.473 46.478H112.753L111.28 42.51C111.057 41.9412 110.694 41.4384 110.223 41.049C109.753 40.6718 109.162 40.4772 108.56 40.501C107.956 40.4815 107.364 40.6755 106.889 41.049C106.417 41.4378 106.053 41.9402 105.829 42.509L104.286 46.513H101.582C101.368 46.5111 101.162 46.5938 101.009 46.7431C100.856 46.8924 100.768 47.0962 100.765 47.31C100.765 47.768 101.144 48.139 101.612 48.139H103.665L103.349 48.943H101.509C101.295 48.9408 101.088 49.0239 100.935 49.1738C100.781 49.3238 100.694 49.5285 100.691 49.743C100.691 50.197 101.065 50.564 101.527 50.566H102.708L100.702 55.882C100.579 56.182 100.511 56.5 100.5 56.823C100.52 57.276 100.722 57.703 101.06 58.013C101.434 58.3297 101.91 58.5012 102.4 58.496C102.809 58.5207 103.215 58.4048 103.55 58.1675C103.884 57.9301 104.128 57.5856 104.24 57.191L105.016 54.922H112.16L112.937 57.245C113.063 57.6265 113.312 57.9555 113.645 58.18C113.978 58.4045 114.376 58.5118 114.777 58.485C115.087 58.492 115.392 58.415 115.661 58.265C115.895 58.0943 116.1 57.895 116.275 57.667C116.427 57.412 116.505 57.1197 116.5 56.823C116.451 56.5079 116.375 56.1978 116.272 55.896V55.883Z" fill="#FEFEFE"/>
</g>
<defs>
<filter id="filter0_d_232_1729" x="0" y="0" width="217.33" height="120" filterUnits="userSpaceOnUse" color-interpolation-filters="sRGB">
<feFlood flood-opacity="0" result="BackgroundImageFix"/>
<feColorMatrix in="SourceAlpha" type="matrix" values="0 0 0 0 0 0 0 0 0 0 0 0 0 0 0 0 0 0 127 0" result="hardAlpha"/>
<feMorphology radius="10" operator="erode" in="SourceAlpha" result="effect1_dropShadow_232_1729"/>
<feOffset dy="10"/>
<feGaussianBlur stdDeviation="15"/>
<feComposite in2="hardAlpha" operator="out"/>
<feColorMatrix type="matrix" values="0 0 0 0 0 0 0 0 0 0 0 0 0 0 0 0 0 0 0.04 0"/>
<feBlend mode="normal" in2="BackgroundImageFix" result="effect1_dropShadow_232_1729"/>
<feBlend mode="normal" in="SourceGraphic" in2="effect1_dropShadow_232_1729" result="shape"/>
</filter>
<clipPath id="clip0_232_1729">
<rect width="32" height="32" fill="white" transform="translate(92.5 34)"/>
</clipPath>
</defs>
</svg>
