<svg width="80" height="83" viewBox="0 0 80 83" fill="none" xmlns="http://www.w3.org/2000/svg">
<rect x="11" y="2" width="58" height="58.0251" rx="16" fill="white"/>
<g filter="url(#filter0_dd_232_2356)">
<rect x="12" y="2" width="56" height="58.0251" rx="28" fill="white" fill-opacity="0.01" shape-rendering="crispEdges"/>
</g>
<g clip-path="url(#clip0_232_2356)">
<path d="M53.21 31.0127C53.21 23.7171 47.2957 17.8027 40 17.8027C32.7044 17.8027 26.79 23.7171 26.79 31.0127C26.79 37.6062 31.6208 43.0713 37.936 44.0623V34.8312H34.5819V31.0127H37.936V28.1024C37.936 24.7917 39.9082 22.9629 42.9256 22.9629C44.3709 22.9629 45.8826 23.2209 45.8826 23.2209V26.4718H44.2169C42.5759 26.4718 42.0641 27.4901 42.0641 28.5348V31.0127H45.7278L45.1421 34.8312H42.0641V44.0623C48.3793 43.0713 53.21 37.6063 53.21 31.0127Z" fill="#1877F2"/>
<path d="M45.1423 34.8313L45.728 31.0127H42.0643V28.5348C42.0643 27.49 42.576 26.4718 44.2171 26.4718H45.8828V23.2209C45.8828 23.2209 44.3711 22.9629 42.9257 22.9629C39.9083 22.9629 37.9361 24.7917 37.9361 28.1024V31.0127H34.582V34.8313H37.9361V44.0623C38.6189 44.1692 39.3091 44.2229 40.0002 44.2227C40.6913 44.2229 41.3814 44.1692 42.0643 44.0623V34.8313H45.1423Z" fill="white"/>
</g>
<defs>
<filter id="filter0_dd_232_2356" x="0" y="0" width="80" height="82.0249" filterUnits="userSpaceOnUse" color-interpolation-filters="sRGB">
<feFlood flood-opacity="0" result="BackgroundImageFix"/>
<feColorMatrix in="SourceAlpha" type="matrix" values="0 0 0 0 0 0 0 0 0 0 0 0 0 0 0 0 0 0 127 0" result="hardAlpha"/>
<feMorphology radius="4" operator="erode" in="SourceAlpha" result="effect1_dropShadow_232_2356"/>
<feOffset dy="4"/>
<feGaussianBlur stdDeviation="3"/>
<feComposite in2="hardAlpha" operator="out"/>
<feColorMatrix type="matrix" values="0 0 0 0 0 0 0 0 0 0 0 0 0 0 0 0 0 0 0.1 0"/>
<feBlend mode="normal" in2="BackgroundImageFix" result="effect1_dropShadow_232_2356"/>
<feColorMatrix in="SourceAlpha" type="matrix" values="0 0 0 0 0 0 0 0 0 0 0 0 0 0 0 0 0 0 127 0" result="hardAlpha"/>
<feMorphology radius="3" operator="erode" in="SourceAlpha" result="effect2_dropShadow_232_2356"/>
<feOffset dy="10"/>
<feGaussianBlur stdDeviation="7.5"/>
<feComposite in2="hardAlpha" operator="out"/>
<feColorMatrix type="matrix" values="0 0 0 0 0 0 0 0 0 0 0 0 0 0 0 0 0 0 0.1 0"/>
<feBlend mode="normal" in2="effect1_dropShadow_232_2356" result="effect2_dropShadow_232_2356"/>
<feBlend mode="normal" in="SourceGraphic" in2="effect2_dropShadow_232_2356" result="shape"/>
</filter>
<clipPath id="clip0_232_2356">
<rect width="26.42" height="26.42" fill="white" transform="translate(26.79 17.8027)"/>
</clipPath>
</defs>
</svg>
