<svg width="369" height="261" viewBox="0 0 369 261" fill="none" xmlns="http://www.w3.org/2000/svg">
<g filter="url(#filter0_i_232_1578)">
<rect x="11" width="346.67" height="255" rx="12" fill="#F2F4F6"/>
<rect x="11.5" y="0.5" width="345.67" height="254" rx="11.5" stroke="#BBCBBC" stroke-opacity="0.2"/>
<rect x="208.715" y="196.189" width="131.955" height="42" rx="8" fill="#25D16F"/>
<g filter="url(#filter1_dd_232_1578)">
<rect x="208.715" y="196.189" width="132.2" height="42" rx="8" fill="white" fill-opacity="0.01" shape-rendering="crispEdges"/>
</g>
<path d="M224.011 220.697L220.715 217.401L221.546 216.584L224.025 219.063L224.842 219.88L224.011 220.697ZM227.307 220.697L224.011 217.401L224.827 216.57L227.307 219.049L232.673 213.682L233.49 214.513L227.307 220.697ZM227.307 217.401L226.475 216.584L229.363 213.697L230.194 214.513L227.307 217.401Z" fill="white"/>
<path d="M245.804 222.369C245.118 222.369 244.513 222.23 243.99 221.95C243.468 221.67 243.059 221.277 242.765 220.769C242.471 220.261 242.324 219.665 242.324 218.979V213.559L243.788 213.549V218.941C243.788 219.267 243.843 219.557 243.953 219.813C244.063 220.069 244.213 220.286 244.402 220.464C244.591 220.642 244.807 220.778 245.049 220.87C245.291 220.963 245.543 221.009 245.804 221.009C246.072 221.009 246.328 220.962 246.57 220.868C246.812 220.774 247.027 220.637 247.214 220.459C247.402 220.281 247.55 220.064 247.658 219.808C247.766 219.552 247.821 219.263 247.821 218.941V213.549H249.284V218.979C249.284 219.664 249.137 220.26 248.843 220.768C248.549 221.276 248.141 221.669 247.618 221.949C247.096 222.229 246.491 222.369 245.804 222.369ZM255.447 222.189V219.067C255.447 218.867 255.432 218.642 255.403 218.394C255.374 218.146 255.309 217.907 255.208 217.677C255.108 217.447 254.956 217.257 254.754 217.109C254.552 216.961 254.278 216.887 253.932 216.887C253.75 216.887 253.569 216.917 253.389 216.977C253.209 217.037 253.047 217.139 252.901 217.284C252.756 217.429 252.639 217.629 252.551 217.884C252.463 218.14 252.418 218.465 252.418 218.859L251.56 218.491C251.56 217.941 251.667 217.442 251.881 216.993C252.095 216.544 252.41 216.187 252.825 215.922C253.241 215.658 253.753 215.525 254.362 215.525C254.84 215.525 255.236 215.605 255.548 215.763C255.86 215.922 256.108 216.126 256.292 216.375C256.476 216.624 256.612 216.889 256.7 217.169C256.788 217.449 256.845 217.715 256.871 217.965C256.897 218.215 256.91 218.417 256.91 218.571V222.189H255.447ZM250.954 222.189V215.709H252.242V217.719H252.418V222.189H250.954ZM258.59 214.727V213.399H260.034V214.727H258.59ZM258.59 222.189V215.709H260.034V222.189H258.59ZM262.402 222.189V215.607C262.402 215.443 262.408 215.262 262.418 215.065C262.428 214.868 262.462 214.671 262.52 214.474C262.578 214.278 262.68 214.099 262.826 213.937C263.009 213.734 263.208 213.593 263.422 213.515C263.637 213.437 263.848 213.393 264.055 213.383C264.263 213.374 264.446 213.369 264.604 213.369H265.414V214.545H264.664C264.388 214.545 264.183 214.615 264.048 214.753C263.914 214.891 263.846 215.072 263.846 215.295V222.189H262.402ZM261.356 216.843V215.709H265.414V216.843H261.356ZM266.674 214.727V213.399H268.118V214.727H266.674ZM266.674 222.189V215.709H268.118V222.189H266.674ZM272.862 222.369C272.207 222.369 271.632 222.227 271.136 221.943C270.641 221.659 270.254 221.265 269.976 220.761C269.698 220.257 269.558 219.677 269.558 219.019C269.558 218.311 269.695 217.696 269.968 217.174C270.241 216.652 270.619 216.248 271.103 215.96C271.587 215.673 272.146 215.529 272.782 215.529C273.452 215.529 274.022 215.686 274.492 215.999C274.962 216.313 275.312 216.755 275.541 217.327C275.77 217.899 275.856 218.575 275.799 219.353H274.365V218.825C274.361 218.12 274.237 217.605 273.992 217.28C273.748 216.956 273.365 216.793 272.842 216.793C272.251 216.793 271.811 216.977 271.522 217.343C271.233 217.71 271.088 218.245 271.088 218.949C271.088 219.607 271.233 220.115 271.522 220.475C271.811 220.835 272.231 221.015 272.782 221.015C273.138 221.015 273.445 220.936 273.702 220.777C273.96 220.619 274.159 220.39 274.299 220.091L275.728 220.521C275.481 221.107 275.098 221.561 274.579 221.884C274.06 222.208 273.488 222.369 272.862 222.369ZM270.632 219.353V218.259H275.092V219.353H270.632ZM279.742 222.369C279.144 222.369 278.623 222.219 278.18 221.919C277.737 221.619 277.393 221.21 277.149 220.694C276.905 220.178 276.782 219.595 276.782 218.947C276.782 218.291 276.906 217.706 277.153 217.192C277.4 216.678 277.749 216.272 278.2 215.975C278.651 215.678 279.183 215.529 279.796 215.529C280.41 215.529 280.927 215.679 281.346 215.978C281.765 216.277 282.082 216.684 282.297 217.2C282.513 217.716 282.62 218.298 282.62 218.947C282.62 219.595 282.512 220.177 282.295 220.693C282.079 221.209 281.757 221.618 281.33 221.918C280.904 222.219 280.374 222.369 279.742 222.369ZM279.962 221.075C280.35 221.075 280.664 220.986 280.902 220.806C281.141 220.627 281.315 220.377 281.423 220.057C281.532 219.737 281.587 219.367 281.587 218.947C281.587 218.527 281.532 218.157 281.423 217.837C281.314 217.517 281.143 217.268 280.911 217.09C280.679 216.912 280.38 216.823 280.012 216.823C279.623 216.823 279.303 216.919 279.051 217.109C278.8 217.3 278.614 217.556 278.493 217.877C278.373 218.199 278.312 218.555 278.312 218.947C278.312 219.343 278.372 219.702 278.49 220.024C278.609 220.346 278.79 220.602 279.033 220.791C279.276 220.981 279.586 221.075 279.962 221.075ZM281.587 222.189V217.639H281.411V213.549H282.864V222.189H281.587ZM290.144 222.369C289.514 222.369 288.945 222.259 288.439 222.039C287.933 221.819 287.517 221.505 287.191 221.095C286.865 220.685 286.657 220.197 286.566 219.631L288.07 219.405C288.196 219.917 288.458 220.314 288.856 220.594C289.254 220.875 289.714 221.015 290.234 221.015C290.542 221.015 290.832 220.967 291.104 220.87C291.377 220.774 291.598 220.633 291.768 220.448C291.938 220.263 292.022 220.038 292.022 219.773C292.022 219.651 292.003 219.54 291.963 219.439C291.923 219.338 291.865 219.247 291.787 219.167C291.709 219.087 291.61 219.014 291.488 218.948C291.366 218.883 291.224 218.825 291.06 218.775L288.83 218.117C288.638 218.062 288.431 217.987 288.208 217.891C287.986 217.796 287.776 217.666 287.578 217.501C287.381 217.337 287.219 217.125 287.092 216.867C286.966 216.609 286.902 216.289 286.902 215.907C286.902 215.351 287.044 214.884 287.327 214.507C287.61 214.13 287.99 213.847 288.467 213.658C288.945 213.469 289.476 213.376 290.062 213.379C290.653 213.386 291.181 213.488 291.645 213.686C292.11 213.884 292.498 214.171 292.809 214.545C293.12 214.92 293.34 215.375 293.468 215.909L291.914 216.175C291.852 215.872 291.729 215.614 291.545 215.401C291.362 215.188 291.14 215.025 290.878 214.912C290.616 214.8 290.338 214.74 290.042 214.733C289.754 214.727 289.487 214.769 289.241 214.86C288.996 214.951 288.798 215.08 288.648 215.247C288.498 215.415 288.422 215.611 288.422 215.835C288.422 216.049 288.486 216.223 288.614 216.355C288.742 216.488 288.901 216.594 289.092 216.673C289.284 216.752 289.476 216.817 289.67 216.869L291.218 217.299C291.43 217.357 291.668 217.433 291.931 217.529C292.195 217.625 292.448 217.759 292.692 217.931C292.936 218.103 293.138 218.329 293.296 218.609C293.455 218.889 293.534 219.244 293.534 219.673C293.534 220.122 293.442 220.516 293.257 220.854C293.072 221.192 292.821 221.473 292.503 221.697C292.186 221.921 291.824 222.089 291.418 222.201C291.012 222.313 290.587 222.369 290.144 222.369ZM298.634 222.189C298.207 222.271 297.788 222.307 297.377 222.295C296.966 222.284 296.599 222.208 296.276 222.067C295.953 221.927 295.708 221.702 295.54 221.393C295.391 221.111 295.312 220.825 295.303 220.533C295.295 220.242 295.29 219.911 295.29 219.541V213.909H296.734V219.461C296.734 219.718 296.737 219.945 296.743 220.142C296.749 220.339 296.79 220.5 296.866 220.625C297.01 220.863 297.24 220.996 297.555 221.024C297.871 221.052 298.23 221.037 298.634 220.979V222.189ZM294.116 216.843V215.709H298.634V216.843H294.116ZM300.032 222.189V215.709H301.31V217.287L301.154 217.083C301.236 216.867 301.343 216.67 301.477 216.491C301.611 216.313 301.772 216.165 301.958 216.049C302.118 215.941 302.294 215.856 302.488 215.796C302.682 215.736 302.88 215.699 303.084 215.685C303.288 215.671 303.488 215.679 303.682 215.709V217.059C303.488 217.003 303.266 216.985 303.018 217.006C302.77 217.028 302.544 217.097 302.34 217.213C302.142 217.322 301.981 217.46 301.855 217.628C301.729 217.796 301.636 217.986 301.576 218.2C301.516 218.414 301.486 218.647 301.486 218.897V222.189H300.032ZM307.644 222.369C306.989 222.369 306.414 222.227 305.918 221.943C305.423 221.659 305.036 221.265 304.758 220.761C304.48 220.257 304.34 219.677 304.34 219.019C304.34 218.311 304.477 217.696 304.75 217.174C305.023 216.652 305.401 216.248 305.885 215.96C306.369 215.673 306.928 215.529 307.564 215.529C308.234 215.529 308.804 215.686 309.274 215.999C309.744 216.313 310.094 216.755 310.323 217.327C310.552 217.899 310.638 218.575 310.581 219.353H309.147V218.825C309.143 218.12 309.019 217.605 308.774 217.28C308.53 216.956 308.147 216.793 307.624 216.793C307.033 216.793 306.593 216.977 306.304 217.343C306.015 217.71 305.87 218.245 305.87 218.949C305.87 219.607 306.015 220.115 306.304 220.475C306.593 220.835 307.013 221.015 307.564 221.015C307.92 221.015 308.227 220.936 308.484 220.777C308.742 220.619 308.941 220.39 309.081 220.091L310.51 220.521C310.263 221.107 309.88 221.561 309.361 221.884C308.842 222.208 308.27 222.369 307.644 222.369ZM305.414 219.353V218.259H309.874V219.353H305.414ZM313.618 222.369C313.148 222.369 312.751 222.281 312.427 222.103C312.103 221.925 311.859 221.688 311.693 221.392C311.527 221.096 311.444 220.769 311.444 220.413C311.444 220.1 311.497 219.819 311.601 219.571C311.705 219.323 311.866 219.107 312.082 218.925C312.298 218.743 312.577 218.593 312.918 218.475C313.181 218.389 313.487 218.313 313.835 218.247C314.183 218.181 314.563 218.118 314.974 218.06C315.384 218.002 315.815 217.939 316.264 217.871L315.745 218.161C315.748 217.714 315.648 217.384 315.445 217.172C315.242 216.96 314.898 216.853 314.412 216.853C314.122 216.853 313.841 216.922 313.569 217.059C313.297 217.196 313.107 217.429 312.998 217.759L311.676 217.345C311.837 216.799 312.143 216.359 312.594 216.027C313.045 215.695 313.652 215.529 314.416 215.529C314.993 215.529 315.5 215.623 315.936 215.81C316.373 215.998 316.698 216.306 316.912 216.735C317.028 216.962 317.098 217.194 317.122 217.432C317.146 217.67 317.158 217.931 317.158 218.213V222.189H315.891V220.783L316.101 221.015C315.809 221.481 315.467 221.824 315.077 222.042C314.687 222.26 314.2 222.369 313.618 222.369ZM313.904 221.215C314.232 221.215 314.512 221.157 314.743 221.041C314.975 220.925 315.16 220.783 315.299 220.617C315.437 220.451 315.53 220.292 315.577 220.141C315.652 219.957 315.695 219.747 315.707 219.509C315.719 219.271 315.725 219.078 315.725 218.929L316.169 219.063C315.73 219.133 315.354 219.194 315.042 219.244C314.73 219.295 314.462 219.343 314.239 219.389C314.017 219.435 313.819 219.486 313.646 219.543C313.48 219.605 313.339 219.675 313.223 219.754C313.107 219.833 313.017 219.925 312.955 220.029C312.893 220.134 312.862 220.256 312.862 220.395C312.862 220.553 312.902 220.694 312.981 220.818C313.06 220.942 313.177 221.039 313.331 221.109C313.485 221.18 313.676 221.215 313.904 221.215ZM326.498 222.189L326.5 218.255C326.5 217.809 326.39 217.46 326.169 217.21C325.948 216.96 325.65 216.835 325.276 216.835C325.044 216.835 324.836 216.889 324.652 216.997C324.468 217.105 324.322 217.261 324.214 217.465C324.106 217.669 324.052 217.915 324.052 218.201L323.408 217.821C323.405 217.372 323.506 216.976 323.712 216.634C323.918 216.292 324.197 216.026 324.548 215.835C324.899 215.645 325.29 215.549 325.722 215.549C326.441 215.549 326.991 215.764 327.372 216.193C327.754 216.622 327.944 217.187 327.944 217.889L327.942 222.189H326.498ZM318.706 222.189V215.709H319.984V217.719H320.16V222.189H318.706ZM322.608 222.189L322.61 218.269C322.61 217.819 322.5 217.468 322.28 217.215C322.06 216.962 321.761 216.835 321.382 216.835C321.015 216.835 320.72 216.962 320.496 217.214C320.272 217.466 320.16 217.795 320.16 218.201L319.516 217.769C319.516 217.347 319.62 216.968 319.828 216.634C320.036 216.3 320.317 216.035 320.67 215.841C321.024 215.647 321.421 215.549 321.862 215.549C322.346 215.549 322.751 215.652 323.076 215.858C323.401 216.064 323.645 216.343 323.808 216.697C323.971 217.051 324.052 217.451 324.052 217.895L324.05 222.189H322.608Z" fill="white"/>
<rect x="36" y="17" width="312.67" height="61.5" rx="8" fill="white"/>
<rect x="36.5" y="17.5" width="311.67" height="60.5" rx="7.5" stroke="#BBCBBC" stroke-opacity="0.1"/>
<g filter="url(#filter2_d_232_1578)">
<rect x="36" y="17" width="312.67" height="62" rx="8" fill="white" fill-opacity="0.01" shape-rendering="crispEdges"/>
</g>
<rect x="49" y="31.75" width="32" height="32" rx="16" fill="#E1306C" fill-opacity="0.1"/>
<path d="M64.6503 46H69.317C69.0545 45.3291 68.6535 44.7531 68.1139 44.2718C67.5743 43.7906 66.9545 43.4527 66.2545 43.2583L64.6503 46ZM63.3087 47.1666L65.642 43.1416C65.535 43.1222 65.4281 43.1076 65.3212 43.0979C65.2142 43.0882 65.1073 43.0833 65.0003 43.0833C64.3587 43.0833 63.7607 43.2048 63.2066 43.4479C62.6524 43.6909 62.1614 44.0166 61.7337 44.425L63.3087 47.1666ZM60.4795 48.9166H63.6587L61.3253 44.8916C61.0142 45.2902 60.7712 45.7302 60.5962 46.2114C60.4212 46.6927 60.3337 47.2055 60.3337 47.75C60.3337 47.9541 60.3458 48.151 60.3701 48.3406C60.3944 48.5302 60.4309 48.7222 60.4795 48.9166ZM63.7462 52.2416L65.3212 49.5H60.6837C60.9462 50.1708 61.3472 50.7468 61.8868 51.2281C62.4264 51.7093 63.0462 52.0472 63.7462 52.2416ZM65.0003 52.4166C65.642 52.4166 66.2399 52.2951 66.7941 52.052C67.3482 51.809 67.8392 51.4833 68.267 51.075L66.692 48.3333L64.3587 52.3583C64.4656 52.3777 64.5701 52.3923 64.6722 52.402C64.7743 52.4118 64.8837 52.4166 65.0003 52.4166ZM68.6753 50.6083C68.9864 50.2097 69.2295 49.7698 69.4045 49.2885C69.5795 48.8073 69.667 48.2944 69.667 47.75C69.667 47.5458 69.6548 47.3489 69.6305 47.1593C69.6062 46.9698 69.5698 46.7777 69.5212 46.5833H66.342L68.6753 50.6083ZM65.0003 53.5833C64.2031 53.5833 63.4496 53.4302 62.7399 53.1239C62.0302 52.8177 61.4104 52.3996 60.8805 51.8698C60.3507 51.3399 59.9326 50.7201 59.6264 50.0104C59.3201 49.3007 59.167 48.5472 59.167 47.75C59.167 46.943 59.3201 46.1871 59.6264 45.4823C59.9326 44.7774 60.3507 44.16 60.8805 43.6302C61.4104 43.1003 62.0302 42.6823 62.7399 42.376C63.4496 42.0698 64.2031 41.9166 65.0003 41.9166C65.8073 41.9166 66.5632 42.0698 67.268 42.376C67.9729 42.6823 68.5903 43.1003 69.1201 43.6302C69.65 44.16 70.068 44.7774 70.3743 45.4823C70.6805 46.1871 70.8337 46.943 70.8337 47.75C70.8337 48.5472 70.6805 49.3007 70.3743 50.0104C70.068 50.7201 69.65 51.3399 69.1201 51.8698C68.5903 52.3996 67.9729 52.8177 67.268 53.1239C66.5632 53.4302 65.8073 53.5833 65.0003 53.5833Z" fill="#E1306C"/>
<path d="M93.22 41L95.717 33.08H97.6603L100.157 41H98.7915L96.5273 33.894H96.8207L94.5858 41H93.22ZM94.6133 39.2822V38.0447H98.7713V39.2822H94.6133ZM103.529 41.165C102.98 41.165 102.503 41.0273 102.097 40.752C101.69 40.4767 101.375 40.1024 101.151 39.6291C100.927 39.1558 100.816 38.6222 100.816 38.0282C100.816 37.4268 100.929 36.8904 101.155 36.419C101.382 35.9475 101.701 35.5756 102.115 35.3034C102.528 35.0311 103.016 34.895 103.578 34.895C104.141 34.895 104.615 35.032 104.999 35.3061C105.383 35.5802 105.674 35.9536 105.871 36.4263C106.068 36.899 106.167 37.4329 106.167 38.0282C106.167 38.6216 106.068 39.1549 105.869 39.6282C105.67 40.1015 105.376 40.476 104.984 40.7516C104.593 41.0272 104.108 41.165 103.529 41.165ZM103.73 39.9789C104.086 39.9789 104.373 39.8967 104.592 39.7323C104.811 39.5679 104.97 39.3389 105.07 39.0452C105.169 38.7516 105.219 38.4126 105.219 38.0282C105.219 37.6426 105.169 37.3032 105.069 37.0102C104.969 36.7172 104.813 36.4891 104.6 36.3259C104.388 36.1627 104.113 36.0811 103.776 36.0811C103.419 36.0811 103.126 36.1685 102.895 36.3433C102.665 36.5181 102.495 36.7528 102.384 37.0473C102.273 37.3419 102.218 37.6688 102.218 38.0282C102.218 38.3912 102.272 38.7203 102.381 39.0154C102.49 39.3106 102.656 39.545 102.878 39.7185C103.101 39.8921 103.385 39.9789 103.73 39.9789ZM105.219 41V36.8292H105.058V33.08H106.391V41H105.219ZM109.595 41.165C109.164 41.165 108.8 41.0836 108.503 40.9207C108.206 40.7578 107.982 40.5406 107.83 40.269C107.678 39.9973 107.603 39.6983 107.603 39.372C107.603 39.0848 107.65 38.8273 107.746 38.5997C107.842 38.3721 107.989 38.1747 108.187 38.0075C108.385 37.8404 108.641 37.7031 108.954 37.5955C109.194 37.5167 109.474 37.4469 109.794 37.386C110.113 37.3252 110.461 37.2681 110.837 37.2146C111.214 37.1612 111.608 37.1036 112.021 37.0418L111.544 37.3077C111.547 36.8976 111.456 36.5953 111.27 36.4006C111.084 36.206 110.768 36.1086 110.323 36.1086C110.057 36.1086 109.799 36.1714 109.55 36.297C109.301 36.4226 109.127 36.6367 109.027 36.9392L107.815 36.5597C107.962 36.0586 108.243 35.6558 108.656 35.3515C109.07 35.0472 109.626 34.895 110.327 34.895C110.855 34.895 111.32 34.9809 111.72 35.1526C112.12 35.3243 112.419 35.6069 112.615 36.0005C112.721 36.2083 112.785 36.4213 112.807 36.6394C112.829 36.8576 112.84 37.0962 112.84 37.3553V41H111.678V39.7112L111.871 39.9238C111.603 40.351 111.29 40.6646 110.932 40.8648C110.574 41.0649 110.129 41.165 109.595 41.165ZM109.857 40.1072C110.158 40.1072 110.415 40.0539 110.627 39.9472C110.839 39.8406 111.008 39.711 111.135 39.5585C111.262 39.4061 111.347 39.2608 111.39 39.1227C111.459 38.954 111.499 38.7607 111.51 38.5429C111.52 38.325 111.526 38.1479 111.526 38.0117L111.933 38.1345C111.531 38.1987 111.187 38.254 110.9 38.3004C110.614 38.3468 110.369 38.391 110.165 38.4329C109.96 38.4747 109.779 38.5219 109.621 38.5745C109.469 38.6307 109.339 38.695 109.233 38.7674C109.126 38.8399 109.044 38.924 108.988 39.02C108.931 39.1159 108.902 39.2278 108.902 39.3555C108.902 39.5003 108.939 39.6294 109.011 39.7428C109.083 39.8562 109.19 39.9452 109.332 40.01C109.473 40.0748 109.648 40.1072 109.857 40.1072ZM116.967 41.165C116.366 41.165 115.839 41.0347 115.385 40.774C114.931 40.5134 114.576 40.1522 114.321 39.6905C114.066 39.2288 113.939 38.6967 113.939 38.0942C113.939 37.4452 114.064 36.8814 114.314 36.4029C114.564 35.9244 114.911 35.5535 115.354 35.2901C115.798 35.0267 116.311 34.895 116.894 34.895C117.508 34.895 118.03 35.0386 118.461 35.3258C118.892 35.6131 119.213 36.0188 119.422 36.5432C119.632 37.0675 119.711 37.6866 119.659 38.4003H118.344V37.9163C118.34 37.2698 118.227 36.7977 118.003 36.5001C117.779 36.2025 117.428 36.0536 116.949 36.0536C116.407 36.0536 116.003 36.2217 115.738 36.5578C115.473 36.8939 115.341 37.3847 115.341 38.03C115.341 38.6326 115.473 39.0988 115.738 39.4288C116.003 39.7589 116.388 39.9239 116.894 39.9239C117.22 39.9239 117.501 39.8511 117.737 39.7057C117.973 39.5602 118.155 39.3506 118.284 39.0768L119.594 39.471C119.368 40.0076 119.016 40.424 118.541 40.7204C118.065 41.0168 117.54 41.165 116.967 41.165ZM114.923 38.4003V37.3975H119.011V38.4003H114.923ZM120.341 41V40.8167L123.485 36.2223H120.659V35.06H125.551V35.247L122.416 39.8377H125.415V41H120.341ZM129.018 41.165C128.417 41.165 127.89 41.0347 127.435 40.774C126.981 40.5134 126.627 40.1522 126.372 39.6905C126.117 39.2288 125.989 38.6967 125.989 38.0942C125.989 37.4452 126.114 36.8814 126.364 36.4029C126.615 35.9244 126.961 35.5535 127.405 35.2901C127.848 35.0267 128.361 34.895 128.944 34.895C129.558 34.895 130.081 35.0386 130.512 35.3258C130.943 35.6131 131.263 36.0188 131.473 36.5432C131.683 37.0675 131.762 37.6866 131.71 38.4003H130.395V37.9163C130.391 37.2698 130.277 36.7977 130.054 36.5001C129.83 36.2025 129.478 36.0536 128.999 36.0536C128.457 36.0536 128.054 36.2217 127.789 36.5578C127.524 36.8939 127.391 37.3847 127.391 38.03C127.391 38.6326 127.524 39.0988 127.789 39.4288C128.054 39.7589 128.439 39.9239 128.944 39.9239C129.271 39.9239 129.552 39.8511 129.788 39.7057C130.024 39.5602 130.206 39.3506 130.334 39.0768L131.645 39.471C131.418 40.0076 131.067 40.424 130.591 40.7204C130.115 41.0168 129.591 41.165 129.018 41.165ZM126.973 38.4003V37.3975H131.062V38.4003H126.973ZM136.725 41.1632C136.12 41.1632 135.617 41.0055 135.216 40.6902C134.815 40.3748 134.533 39.9495 134.371 39.4142L135.678 39.1025C135.72 39.3262 135.838 39.5187 136.033 39.68C136.228 39.8414 136.441 39.922 136.674 39.922C136.829 39.922 136.994 39.8808 137.166 39.7983C137.339 39.7158 137.466 39.5828 137.548 39.3995C137.601 39.2803 137.632 39.1398 137.641 38.9778C137.65 38.8159 137.655 38.6271 137.655 38.4113V33.08H138.996V38.4113C138.996 38.6558 138.995 38.8704 138.993 39.0553C138.991 39.2402 138.973 39.414 138.938 39.5769C138.903 39.7397 138.835 39.9079 138.734 40.0815C138.519 40.4567 138.236 40.7308 137.886 40.9038C137.536 41.0767 137.149 41.1632 136.725 41.1632ZM140.316 41V39.6434H141.673V41H140.316Z" fill="#191C1E"/>
<path d="M149.75 41V33.08H150.557V41H149.75ZM156.499 41V37.9677C156.499 37.6389 156.467 37.3361 156.405 37.0592C156.343 36.7824 156.243 36.5407 156.104 36.3341C155.966 36.1276 155.788 35.9675 155.57 35.8538C155.352 35.7401 155.087 35.6833 154.775 35.6833C154.49 35.6833 154.239 35.7322 154.02 35.83C153.801 35.9278 153.618 36.0692 153.47 36.2544C153.322 36.4396 153.21 36.6648 153.134 36.93C153.057 37.1952 153.019 37.4959 153.019 37.832L152.447 37.7037C152.447 37.095 152.553 36.5835 152.766 36.1692C152.979 35.7548 153.272 35.4419 153.645 35.2305C154.018 35.0191 154.448 34.9133 154.933 34.9133C155.289 34.9133 155.599 34.9677 155.864 35.0765C156.129 35.1853 156.355 35.3332 156.54 35.5202C156.725 35.7072 156.874 35.9214 156.988 36.1627C157.102 36.4041 157.184 36.6593 157.236 36.9282C157.287 37.197 157.313 37.4653 157.313 37.733V41H156.499ZM152.205 41V35.06H152.935V36.523H153.019V41H152.205ZM160.961 41.1577C160.264 41.1577 159.691 41.0076 159.242 40.7076C158.793 40.4075 158.517 39.9892 158.413 39.4527L159.238 39.317C159.324 39.6543 159.525 39.9226 159.84 40.1218C160.155 40.3211 160.543 40.4207 161.005 40.4207C161.455 40.4207 161.81 40.3263 162.07 40.1374C162.33 39.9486 162.461 39.691 162.461 39.3647C162.461 39.1813 162.419 39.0319 162.336 38.9164C162.253 38.8009 162.085 38.6937 161.833 38.5947C161.58 38.4957 161.203 38.3783 160.701 38.2427C160.163 38.0984 159.741 37.9524 159.436 37.8045C159.13 37.6566 158.914 37.4864 158.787 37.2939C158.66 37.1014 158.596 36.8664 158.596 36.589C158.596 36.2517 158.691 35.9556 158.88 35.7007C159.07 35.4459 159.333 35.2479 159.671 35.1067C160.009 34.9656 160.402 34.895 160.851 34.895C161.297 34.895 161.697 34.9671 162.05 35.1113C162.403 35.2556 162.688 35.4578 162.905 35.7182C163.122 35.9785 163.25 36.281 163.289 36.6257L162.464 36.776C162.409 36.4264 162.236 36.1502 161.945 35.9473C161.655 35.7444 161.286 35.6393 160.84 35.632C160.418 35.621 160.075 35.7004 159.811 35.8703C159.546 36.0402 159.414 36.2663 159.414 36.5487C159.414 36.7076 159.461 36.8432 159.556 36.9557C159.65 37.0681 159.823 37.1732 160.075 37.271C160.326 37.3688 160.685 37.4763 161.152 37.5937C161.698 37.733 162.127 37.88 162.44 38.0346C162.752 38.1892 162.973 38.3713 163.104 38.5809C163.235 38.7905 163.3 39.0481 163.3 39.3537C163.3 39.9159 163.092 40.3571 162.677 40.6773C162.261 40.9976 161.689 41.1577 160.961 41.1577ZM167.752 41C167.417 41.0697 167.087 41.0975 166.763 41.0834C166.438 41.0694 166.148 40.9997 165.894 40.8744C165.639 40.7491 165.447 40.5551 165.317 40.2923C165.209 40.0723 165.151 39.849 165.141 39.6223C165.131 39.3955 165.126 39.1373 165.126 38.8477V33.41H165.933V38.8183C165.933 39.0665 165.936 39.2739 165.941 39.4408C165.947 39.6076 165.984 39.7558 166.054 39.8853C166.186 40.131 166.396 40.2771 166.683 40.3235C166.97 40.37 167.326 40.3596 167.752 40.2923V41ZM163.858 35.753V35.06H167.752V35.753H163.858ZM170.624 41.165C170.175 41.165 169.799 41.084 169.498 40.9221C169.197 40.7601 168.97 40.5456 168.82 40.2786C168.669 40.0115 168.593 39.7203 168.593 39.405C168.593 39.0811 168.658 38.8049 168.787 38.5763C168.917 38.3478 169.095 38.1605 169.322 38.0144C169.549 37.8684 169.809 37.7562 170.104 37.678C170.407 37.6047 170.741 37.5399 171.105 37.4837C171.469 37.4274 171.827 37.3776 172.177 37.3343C172.528 37.2909 172.835 37.2502 173.099 37.2123L172.81 37.3847C172.822 36.8004 172.709 36.3665 172.471 36.083C172.232 35.7994 171.817 35.6576 171.226 35.6576C170.82 35.6576 170.477 35.7493 170.195 35.9327C169.914 36.116 169.718 36.4057 169.605 36.8017L168.817 36.5707C168.955 36.0402 169.229 35.6283 169.64 35.335C170.051 35.0417 170.584 34.895 171.24 34.895C171.782 34.895 172.243 34.9964 172.623 35.1993C173.003 35.4022 173.272 35.6968 173.429 36.083C173.503 36.2541 173.55 36.446 173.572 36.6587C173.594 36.8713 173.605 37.0889 173.605 37.3113V41H172.883V39.5077L173.092 39.5993C172.89 40.109 172.577 40.4974 172.153 40.7644C171.728 41.0315 171.218 41.165 170.624 41.165ZM170.716 40.4647C171.094 40.4647 171.423 40.3972 171.705 40.2621C171.987 40.127 172.214 39.9416 172.387 39.7057C172.56 39.4698 172.672 39.2021 172.722 38.9027C172.767 38.712 172.792 38.5027 172.796 38.2747C172.8 38.0468 172.802 37.8748 172.802 37.7587L173.11 37.92C172.833 37.9567 172.534 37.9936 172.214 38.0309C171.894 38.0682 171.578 38.11 171.268 38.1565C170.958 38.2029 170.678 38.2598 170.43 38.327C170.261 38.3759 170.099 38.4434 169.942 38.5296C169.784 38.6157 169.656 38.7297 169.555 38.8715C169.454 39.0133 169.403 39.1911 169.403 39.405C169.403 39.5773 169.447 39.7445 169.533 39.9064C169.619 40.0684 169.758 40.2019 169.95 40.307C170.142 40.4121 170.397 40.4647 170.716 40.4647ZM177.391 43.805C177.088 43.805 176.789 43.7601 176.495 43.6703C176.2 43.5804 175.928 43.4393 175.678 43.2468C175.428 43.0543 175.218 42.804 175.048 42.496L175.782 42.089C175.945 42.419 176.177 42.6561 176.476 42.8004C176.774 42.9446 177.081 43.0167 177.395 43.0167C177.824 43.0167 178.171 42.9375 178.436 42.7793C178.702 42.621 178.894 42.3857 179.015 42.0734C179.135 41.7611 179.194 41.3728 179.192 40.9083V39.3207H179.283V35.06H180.006V40.9157C180.006 41.0843 180.001 41.2466 179.992 41.4024C179.983 41.5582 179.965 41.7125 179.94 41.8653C179.869 42.3065 179.725 42.6702 179.508 42.9562C179.291 43.2422 179.005 43.4551 178.651 43.5951C178.296 43.735 177.877 43.805 177.391 43.805ZM177.34 41.165C176.784 41.165 176.31 41.0269 175.917 40.7507C175.525 40.4744 175.225 40.0992 175.016 39.625C174.808 39.1508 174.704 38.6167 174.704 38.0227C174.704 37.4323 174.807 36.901 175.014 36.4286C175.222 35.9562 175.519 35.5825 175.908 35.3075C176.297 35.0325 176.763 34.895 177.307 34.895C177.864 34.895 178.334 35.0307 178.715 35.302C179.096 35.5733 179.385 35.9449 179.58 36.4167C179.776 36.8884 179.874 37.4238 179.874 38.0227C179.874 38.6142 179.776 39.1471 179.581 39.6213C179.386 40.0956 179.101 40.4714 178.724 40.7488C178.348 41.0263 177.886 41.165 177.34 41.165ZM177.421 40.4134C177.842 40.4134 178.191 40.3101 178.467 40.1035C178.742 39.897 178.947 39.6134 179.082 39.2528C179.216 38.8923 179.283 38.4822 179.283 38.0227C179.283 37.5582 179.215 37.1469 179.08 36.7888C178.944 36.4307 178.74 36.1508 178.467 35.9492C178.193 35.7475 177.851 35.6466 177.439 35.6466C177.012 35.6466 176.66 35.7515 176.382 35.9611C176.104 36.1707 175.898 36.4548 175.763 36.8136C175.629 37.1723 175.562 37.5753 175.562 38.0227C175.562 38.4737 175.631 38.8798 175.769 39.2409C175.907 39.6021 176.113 39.8878 176.388 40.098C176.663 40.3082 177.007 40.4134 177.421 40.4134ZM181.546 41V35.06H182.272V36.49L182.129 36.303C182.196 36.127 182.283 35.9644 182.389 35.8153C182.495 35.6662 182.61 35.544 182.734 35.4487C182.889 35.3142 183.068 35.2113 183.273 35.1397C183.477 35.0682 183.683 35.0261 183.892 35.0132C184.101 35.0004 184.293 35.016 184.468 35.06V35.819C184.249 35.7652 184.012 35.7527 183.756 35.7814C183.5 35.8101 183.263 35.9119 183.045 36.0867C182.847 36.2431 182.699 36.428 182.602 36.6412C182.504 36.8545 182.438 37.0812 182.405 37.3214C182.372 37.5616 182.356 37.8002 182.356 38.0373V41H181.546ZM186.992 41.165C186.543 41.165 186.167 41.084 185.866 40.9221C185.565 40.7601 185.338 40.5456 185.188 40.2786C185.037 40.0115 184.961 39.7203 184.961 39.405C184.961 39.0811 185.026 38.8049 185.155 38.5763C185.285 38.3478 185.463 38.1605 185.69 38.0144C185.917 37.8684 186.177 37.7562 186.472 37.678C186.775 37.6047 187.109 37.5399 187.473 37.4837C187.837 37.4274 188.195 37.3776 188.545 37.3343C188.896 37.2909 189.203 37.2502 189.467 37.2123L189.178 37.3847C189.19 36.8004 189.077 36.3665 188.839 36.083C188.6 35.7994 188.185 35.6576 187.594 35.6576C187.188 35.6576 186.845 35.7493 186.563 35.9327C186.282 36.116 186.086 36.4057 185.973 36.8017L185.185 36.5707C185.323 36.0402 185.597 35.6283 186.008 35.335C186.419 35.0417 186.952 34.895 187.608 34.895C188.15 34.895 188.611 34.9964 188.991 35.1993C189.371 35.4022 189.64 35.6968 189.797 36.083C189.871 36.2541 189.918 36.446 189.94 36.6587C189.962 36.8713 189.973 37.0889 189.973 37.3113V41H189.251V39.5077L189.46 39.5993C189.258 40.109 188.945 40.4974 188.521 40.7644C188.096 41.0315 187.586 41.165 186.992 41.165ZM187.084 40.4647C187.462 40.4647 187.791 40.3972 188.073 40.2621C188.355 40.127 188.582 39.9416 188.755 39.7057C188.928 39.4698 189.04 39.2021 189.09 38.9027C189.135 38.712 189.16 38.5027 189.164 38.2747C189.168 38.0468 189.17 37.8748 189.17 37.7587L189.478 37.92C189.201 37.9567 188.902 37.9936 188.582 38.0309C188.262 38.0682 187.946 38.11 187.636 38.1565C187.326 38.2029 187.046 38.2598 186.798 38.327C186.629 38.3759 186.467 38.4434 186.31 38.5296C186.152 38.6157 186.024 38.7297 185.923 38.8715C185.822 39.0133 185.771 39.1911 185.771 39.405C185.771 39.5773 185.815 39.7445 185.901 39.9064C185.987 40.0684 186.126 40.2019 186.318 40.307C186.51 40.4121 186.765 40.4647 187.084 40.4647ZM198.486 41L198.493 37.1023C198.493 36.6415 198.366 36.2801 198.111 36.0179C197.856 35.7557 197.532 35.6246 197.14 35.6246C196.914 35.6246 196.695 35.6763 196.484 35.7796C196.272 35.8828 196.098 36.0478 195.96 36.2746C195.823 36.5013 195.754 36.7992 195.754 37.1683L195.274 37.029C195.261 36.6024 195.344 36.2297 195.522 35.9107C195.7 35.5917 195.946 35.3439 196.259 35.1672C196.573 34.9906 196.927 34.9023 197.323 34.9023C197.923 34.9023 198.403 35.0866 198.762 35.4551C199.12 35.8236 199.3 36.3213 199.3 36.9483L199.292 41H198.486ZM191.398 41V35.06H192.124V36.523H192.208V41H191.398ZM194.947 41L194.955 37.1537C194.955 36.6807 194.829 36.3076 194.578 36.0344C194.327 35.7612 193.996 35.6246 193.587 35.6246C193.175 35.6246 192.842 35.7655 192.589 36.0472C192.335 36.329 192.208 36.7027 192.208 37.1683L191.728 36.9043C191.728 36.5206 191.818 36.1777 191.997 35.8758C192.177 35.5739 192.422 35.3362 192.734 35.1627C193.045 34.9891 193.399 34.9023 193.796 34.9023C194.174 34.9023 194.51 34.9824 194.805 35.1425C195.1 35.3026 195.332 35.5367 195.501 35.8447C195.67 36.1527 195.754 36.5279 195.754 36.9703L195.747 41H194.947Z" fill="#3C4A3F" fill-opacity="0.6"/>
<path d="M93.91 60.5V51.14H94.8633V55.3607H100.037V51.14H100.991V60.5H100.037V56.275H94.8633V60.5H93.91ZM102.939 52.1497V51.075H103.892V52.1497H102.939ZM102.939 60.5V53.48H103.892V60.5H102.939ZM105.714 61.8563L105.775 61.384C105.945 61.3956 106.069 61.3605 106.147 61.2789C106.225 61.1973 106.273 61.0875 106.291 60.9496C106.309 60.8116 106.313 60.6618 106.303 60.5H105.714V59.1307H106.823V60.76C106.823 61.1587 106.723 61.4577 106.522 61.657C106.321 61.8563 106.052 61.9228 105.714 61.8563ZM114.621 60.695C113.964 60.695 113.403 60.5318 112.94 60.2053C112.476 59.8789 112.121 59.4354 111.875 58.875C111.629 58.3146 111.506 57.6833 111.506 56.9813C111.506 56.2837 111.628 55.6557 111.873 55.0974C112.118 54.5391 112.47 54.0975 112.929 53.7725C113.388 53.4475 113.939 53.285 114.582 53.285C115.241 53.285 115.795 53.4453 116.246 53.766C116.697 54.0867 117.038 54.5258 117.269 55.0833C117.5 55.6409 117.615 56.2736 117.615 56.9813C117.615 57.6804 117.5 58.3102 117.27 58.8707C117.04 59.4311 116.702 59.8753 116.257 60.2032C115.812 60.5311 115.267 60.695 114.621 60.695ZM114.716 59.8067C115.215 59.8067 115.627 59.6846 115.953 59.4405C116.278 59.1964 116.521 58.8613 116.68 58.4352C116.838 58.0091 116.918 57.5244 116.918 56.9813C116.918 56.4324 116.838 55.9464 116.677 55.5232C116.517 55.0999 116.275 54.7692 115.953 54.5308C115.63 54.2925 115.225 54.1733 114.738 54.1733C114.234 54.1733 113.818 54.2972 113.489 54.5449C113.16 54.7926 112.917 55.1285 112.758 55.5524C112.599 55.9764 112.519 56.4527 112.519 56.9813C112.519 57.5143 112.601 57.9943 112.764 58.4211C112.928 58.8479 113.172 59.1856 113.497 59.434C113.822 59.6825 114.228 59.8067 114.716 59.8067ZM116.918 60.5V55.2133H116.818V51.14H117.776V60.5H116.918ZM122.532 60.695C121.834 60.695 121.237 60.5368 120.742 60.2205C120.247 59.9042 119.867 59.4669 119.603 58.9086C119.34 58.3503 119.208 57.7079 119.208 56.9813C119.208 56.2461 119.342 55.6008 119.611 55.0454C119.88 54.49 120.262 54.0578 120.759 53.7487C121.256 53.4396 121.847 53.285 122.532 53.285C123.232 53.285 123.831 53.4424 124.327 53.7573C124.823 54.0722 125.202 54.5074 125.465 55.0628C125.728 55.6181 125.86 56.2577 125.86 56.9813C125.86 57.718 125.727 58.3648 125.462 58.9216C125.197 59.4784 124.816 59.9132 124.318 60.2259C123.82 60.5386 123.225 60.695 122.532 60.695ZM122.532 59.7807C123.31 59.7807 123.891 59.521 124.273 59.0018C124.655 58.4825 124.846 57.809 124.846 56.9813C124.846 56.1349 124.653 55.4596 124.268 54.9555C123.883 54.4514 123.304 54.1993 122.532 54.1993C122.007 54.1993 121.575 54.3178 121.234 54.5546C120.893 54.7915 120.639 55.1187 120.472 55.5362C120.305 55.9536 120.222 56.4353 120.222 56.9813C120.222 57.8263 120.417 58.5042 120.808 59.0148C121.199 59.5254 121.773 59.7807 122.532 59.7807ZM130.889 63.62L132.249 59.9367L132.267 61.0287L129.194 53.48H130.204L132.726 59.7937H132.31L134.637 53.48H135.616L131.842 63.62H130.889ZM139.419 60.695C138.721 60.695 138.124 60.5368 137.629 60.2205C137.134 59.9042 136.754 59.4669 136.49 58.9086C136.227 58.3503 136.095 57.7079 136.095 56.9813C136.095 56.2461 136.229 55.6008 136.498 55.0454C136.767 54.49 137.149 54.0578 137.646 53.7487C138.143 53.4396 138.734 53.285 139.419 53.285C140.119 53.285 140.718 53.4424 141.214 53.7573C141.71 54.0722 142.089 54.5074 142.352 55.0628C142.615 55.6181 142.747 56.2577 142.747 56.9813C142.747 57.718 142.614 58.3648 142.349 58.9216C142.084 59.4784 141.703 59.9132 141.205 60.2259C140.707 60.5386 140.112 60.695 139.419 60.695ZM139.419 59.7807C140.197 59.7807 140.778 59.521 141.16 59.0018C141.542 58.4825 141.733 57.809 141.733 56.9813C141.733 56.1349 141.54 55.4596 141.155 54.9555C140.77 54.4514 140.191 54.1993 139.419 54.1993C138.894 54.1993 138.462 54.3178 138.121 54.5546C137.78 54.7915 137.526 55.1187 137.359 55.5362C137.192 55.9536 137.109 56.4353 137.109 56.9813C137.109 57.8263 137.304 58.5042 137.695 59.0148C138.086 59.5254 138.66 59.7807 139.419 59.7807ZM146.857 60.6733C146.437 60.6733 146.07 60.6091 145.756 60.4805C145.443 60.3519 145.177 60.1772 144.958 59.9562C144.739 59.7352 144.562 59.482 144.428 59.1968C144.294 58.9115 144.196 58.61 144.136 58.2922C144.075 57.9744 144.044 57.6573 144.044 57.341V53.48H145.006V57.0637C145.006 57.4493 145.043 57.8065 145.117 58.1351C145.191 58.4637 145.309 58.7501 145.472 58.9942C145.636 59.2383 145.846 59.4275 146.104 59.5619C146.362 59.6962 146.675 59.7634 147.043 59.7634C147.38 59.7634 147.677 59.7056 147.936 59.59C148.194 59.4745 148.411 59.3073 148.586 59.0884C148.761 58.8696 148.893 58.6031 148.983 58.2889C149.074 57.9748 149.119 57.6198 149.119 57.224L149.795 57.3757C149.795 58.095 149.669 58.6995 149.418 59.1892C149.166 59.6788 148.82 60.0486 148.379 60.2985C147.938 60.5484 147.43 60.6733 146.857 60.6733ZM149.219 60.5V58.771H149.119V53.48H150.076V60.5H149.219ZM157.222 60.695C156.565 60.695 156.004 60.5318 155.541 60.2053C155.077 59.8789 154.722 59.4354 154.476 58.875C154.23 58.3146 154.106 57.6833 154.106 56.9813C154.106 56.2837 154.229 55.6557 154.474 55.0974C154.719 54.5391 155.071 54.0975 155.53 53.7725C155.989 53.4475 156.54 53.285 157.183 53.285C157.842 53.285 158.396 53.4453 158.847 53.766C159.298 54.0867 159.639 54.5258 159.87 55.0833C160.101 55.6409 160.216 56.2736 160.216 56.9813C160.216 57.6804 160.101 58.3102 159.871 58.8707C159.641 59.4311 159.303 59.8753 158.858 60.2032C158.413 60.5311 157.868 60.695 157.222 60.695ZM157.317 59.8067C157.816 59.8067 158.228 59.6846 158.554 59.4405C158.879 59.1964 159.122 58.8613 159.281 58.4352C159.439 58.0091 159.519 57.5244 159.519 56.9813C159.519 56.4324 159.439 55.9464 159.278 55.5232C159.118 55.0999 158.876 54.7692 158.554 54.5308C158.231 54.2925 157.826 54.1733 157.339 54.1733C156.835 54.1733 156.419 54.2972 156.09 54.5449C155.761 54.7926 155.518 55.1285 155.359 55.5524C155.2 55.9764 155.12 56.4527 155.12 56.9813C155.12 57.5143 155.202 57.9943 155.365 58.4211C155.529 58.8479 155.773 59.1856 156.098 59.434C156.423 59.6825 156.829 59.8067 157.317 59.8067ZM159.519 60.5V55.2133H159.419V51.14H160.377V60.5H159.519ZM165.167 60.695C164.486 60.695 163.894 60.5437 163.392 60.2411C162.89 59.9385 162.501 59.5116 162.224 58.9606C161.947 58.4095 161.809 57.7628 161.809 57.0203C161.809 56.2533 161.946 55.5903 162.219 55.0313C162.491 54.4723 162.876 54.0415 163.373 53.7389C163.87 53.4363 164.457 53.285 165.133 53.285C165.826 53.285 166.417 53.4439 166.907 53.7617C167.397 54.0794 167.767 54.5352 168.019 55.1288C168.27 55.7225 168.383 56.4324 168.359 57.2587H167.386V56.9207C167.369 56.0092 167.173 55.3213 166.798 54.8569C166.423 54.3925 165.877 54.1603 165.159 54.1603C164.403 54.1603 163.825 54.4055 163.424 54.8959C163.023 55.3863 162.823 56.0843 162.823 56.99C162.823 57.8755 163.023 58.5619 163.424 59.0494C163.825 59.5369 164.395 59.7807 165.133 59.7807C165.635 59.7807 166.074 59.6644 166.448 59.4319C166.822 59.1993 167.117 58.8649 167.334 58.4287L168.227 58.771C167.948 59.3834 167.539 59.8572 166.999 60.1923C166.46 60.5274 165.849 60.695 165.167 60.695ZM162.485 57.2587V56.457H167.85V57.2587H162.485ZM169.927 60.5V50.945H170.881V60.5H169.927ZM172.963 52.1497V51.075H173.916V52.1497H172.963ZM172.963 60.5V53.48H173.916V60.5H172.963ZM177.767 60.5L175.219 53.48H176.189L178.26 59.252L180.323 53.48H181.302L178.754 60.5H177.767ZM185.181 60.695C184.499 60.695 183.907 60.5437 183.405 60.2411C182.903 59.9385 182.514 59.5116 182.237 58.9606C181.961 58.4095 181.822 57.7628 181.822 57.0203C181.822 56.2533 181.959 55.5903 182.232 55.0313C182.505 54.4723 182.89 54.0415 183.387 53.7389C183.884 53.4363 184.47 53.285 185.146 53.285C185.839 53.285 186.431 53.4439 186.921 53.7617C187.41 54.0794 187.781 54.5352 188.032 55.1288C188.283 55.7225 188.397 56.4324 188.372 57.2587H187.4V56.9207C187.382 56.0092 187.186 55.3213 186.811 54.8569C186.436 54.3925 185.89 54.1603 185.172 54.1603C184.417 54.1603 183.839 54.4055 183.438 54.8959C183.037 55.3863 182.836 56.0843 182.836 56.99C182.836 57.8755 183.037 58.5619 183.438 59.0494C183.839 59.5369 184.408 59.7807 185.146 59.7807C185.649 59.7807 186.087 59.6644 186.461 59.4319C186.835 59.1993 187.131 58.8649 187.348 58.4287L188.24 58.771C187.961 59.3834 187.552 59.8572 187.013 60.1923C186.473 60.5274 185.863 60.695 185.181 60.695ZM182.498 57.2587V56.457H187.863V57.2587H182.498ZM189.811 60.5V53.48H190.669V55.17L190.5 54.949C190.579 54.741 190.682 54.5489 190.808 54.3727C190.933 54.1964 191.069 54.052 191.215 53.9393C191.398 53.7804 191.611 53.6588 191.852 53.5742C192.093 53.4897 192.337 53.4399 192.584 53.4247C192.831 53.4096 193.058 53.428 193.265 53.48V54.377C193.006 54.3134 192.726 54.2986 192.423 54.3326C192.12 54.3665 191.84 54.4868 191.583 54.6933C191.349 54.8782 191.175 55.0967 191.059 55.3487C190.943 55.6008 190.866 55.8687 190.827 56.1526C190.788 56.4364 190.769 56.7184 190.769 56.9987V60.5H189.811ZM200.919 60.5C200.524 60.5823 200.134 60.6152 199.751 60.5986C199.367 60.582 199.025 60.4996 198.724 60.3516C198.422 60.2035 198.195 59.9742 198.042 59.6637C197.915 59.4037 197.846 59.1397 197.834 58.8718C197.823 58.6038 197.817 58.2987 197.817 57.9563V51.53H198.77V57.9217C198.77 58.2149 198.773 58.4601 198.78 58.6573C198.786 58.8544 198.831 59.0296 198.913 59.1827C199.069 59.473 199.317 59.6456 199.656 59.7005C199.996 59.7554 200.417 59.7431 200.919 59.6637V60.5ZM196.317 54.299V53.48H200.919V54.299H196.317ZM204.978 60.695C204.28 60.695 203.683 60.5368 203.188 60.2205C202.693 59.9042 202.313 59.4669 202.049 58.9086C201.786 58.3503 201.654 57.7079 201.654 56.9813C201.654 56.2461 201.788 55.6008 202.057 55.0454C202.326 54.49 202.708 54.0578 203.205 53.7487C203.702 53.4396 204.293 53.285 204.978 53.285C205.678 53.285 206.277 53.4424 206.773 53.7573C207.269 54.0722 207.648 54.5074 207.911 55.0628C208.174 55.6181 208.306 56.2577 208.306 56.9813C208.306 57.718 208.173 58.3648 207.908 58.9216C207.643 59.4784 207.262 59.9132 206.764 60.2259C206.266 60.5386 205.671 60.695 204.978 60.695ZM204.978 59.7807C205.756 59.7807 206.337 59.521 206.719 59.0018C207.101 58.4825 207.292 57.809 207.292 56.9813C207.292 56.1349 207.099 55.4596 206.714 54.9555C206.329 54.4514 205.75 54.1993 204.978 54.1993C204.453 54.1993 204.021 54.3178 203.68 54.5546C203.339 54.7915 203.085 55.1187 202.918 55.5362C202.751 55.9536 202.668 56.4353 202.668 56.9813C202.668 57.8263 202.863 58.5042 203.254 59.0148C203.645 59.5254 204.219 59.7807 204.978 59.7807ZM212.464 60.5V51.14H213.417V59.5857H217.863V60.5H212.464ZM221.938 60.695C221.257 60.695 220.665 60.5437 220.163 60.2411C219.661 59.9385 219.272 59.5116 218.995 58.9606C218.718 58.4095 218.58 57.7628 218.58 57.0203C218.58 56.2533 218.716 55.5903 218.989 55.0313C219.262 54.4723 219.647 54.0415 220.144 53.7389C220.641 53.4363 221.228 53.285 221.904 53.285C222.597 53.285 223.188 53.4439 223.678 53.7617C224.168 54.0794 224.538 54.5352 224.79 55.1288C225.041 55.7225 225.154 56.4324 225.13 57.2587H224.157V56.9207C224.14 56.0092 223.944 55.3213 223.569 54.8569C223.194 54.3925 222.648 54.1603 221.93 54.1603C221.174 54.1603 220.596 54.4055 220.195 54.8959C219.794 55.3863 219.594 56.0843 219.594 56.99C219.594 57.8755 219.794 58.5619 220.195 59.0494C220.596 59.5369 221.166 59.7807 221.904 59.7807C222.406 59.7807 222.845 59.6644 223.219 59.4319C223.593 59.1993 223.888 58.8649 224.105 58.4287L224.998 58.771C224.719 59.3834 224.31 59.8572 223.77 60.1923C223.231 60.5274 222.62 60.695 221.938 60.695ZM219.256 57.2587V56.457H224.621V57.2587H219.256ZM226.564 60.5L226.568 51.14H227.53V56.86L230.663 53.48H231.937L228.648 56.99L232.366 60.5H230.975L227.53 57.12V60.5H226.564ZM233.012 60.5L233.017 51.14H233.978V56.86L237.112 53.48H238.385L235.096 56.99L238.814 60.5H237.424L233.978 57.12V60.5H233.012ZM239.595 52.1497V51.075H240.548V52.1497H239.595ZM239.595 60.5V53.48H240.548V60.5H239.595ZM244.333 57.9477C244.333 57.6097 244.349 57.3114 244.382 57.0528C244.414 56.7943 244.501 56.535 244.641 56.275C244.769 56.028 244.928 55.8232 245.118 55.6607C245.308 55.4982 245.508 55.344 245.716 55.1982C245.925 55.0523 246.123 54.8797 246.309 54.6803C246.478 54.4882 246.591 54.2921 246.648 54.0921C246.705 53.892 246.734 53.6808 246.734 53.4583C246.734 53.2402 246.707 53.0438 246.652 52.869C246.598 52.6942 246.514 52.544 246.4 52.4183C246.227 52.2089 246.014 52.0648 245.762 51.9861C245.51 51.9073 245.249 51.868 244.979 51.868C244.71 51.868 244.459 51.9063 244.226 51.9828C243.992 52.0594 243.8 52.1756 243.648 52.3317C243.501 52.4689 243.394 52.635 243.327 52.83C243.259 53.025 243.227 53.2315 243.228 53.4497H242.24C242.257 53.1044 242.332 52.7686 242.465 52.4422C242.598 52.1157 242.792 51.842 243.046 51.621C243.302 51.387 243.6 51.2166 243.941 51.1097C244.282 51.0028 244.625 50.9493 244.97 50.9493C245.395 50.9493 245.798 51.014 246.179 51.1432C246.56 51.2725 246.881 51.4852 247.141 51.7813C247.349 52.0052 247.502 52.2591 247.6 52.5429C247.699 52.8267 247.748 53.129 247.748 53.4497C247.748 53.8064 247.68 54.143 247.544 54.4593C247.408 54.7757 247.22 55.0573 246.981 55.3043C246.832 55.4646 246.664 55.6138 246.477 55.7517C246.29 55.8897 246.111 56.0305 245.942 56.1742C245.772 56.318 245.64 56.4758 245.546 56.6477C245.434 56.8528 245.372 57.0492 245.362 57.237C245.352 57.4248 245.347 57.6617 245.347 57.9477H244.333ZM244.337 60.5V59.226H245.347V60.5H244.337Z" fill="#3C4A3F"/>
<rect x="20" y="91" width="312.67" height="61.5" rx="8" fill="white"/>
<rect x="20.5" y="91.5" width="311.67" height="60.5" rx="7.5" stroke="#BBCBBC" stroke-opacity="0.1"/>
<g filter="url(#filter3_d_232_1578)">
<rect x="20" y="91" width="312.67" height="62" rx="8" fill="white" fill-opacity="0.01" shape-rendering="crispEdges"/>
</g>
<rect x="33" y="105.75" width="32" height="32" rx="16" fill="#0088CC" fill-opacity="0.1"/>
<path d="M47.2497 126.417C45.9469 126.417 44.8434 125.965 43.9393 125.06C43.0351 124.156 42.583 123.053 42.583 121.75C42.583 120.447 43.0351 119.344 43.9393 118.44C44.8434 117.535 45.9469 117.083 47.2497 117.083C48.5525 117.083 49.6559 117.535 50.5601 118.44C51.4643 119.344 51.9163 120.447 51.9163 121.75C51.9163 123.053 51.4643 124.156 50.5601 125.06C49.6559 125.965 48.5525 126.417 47.2497 126.417ZM47.2497 125.25C48.2219 125.25 49.0483 124.91 49.7288 124.229C50.4094 123.549 50.7497 122.722 50.7497 121.75C50.7497 121.643 50.7448 121.541 50.7351 121.444C50.7254 121.346 50.7108 121.244 50.6913 121.137C49.9719 121.215 49.2768 121.135 48.6059 120.897C47.9351 120.659 47.3469 120.282 46.8413 119.767C46.4719 120.272 46.0174 120.69 45.4778 121.021C44.9382 121.351 44.3622 121.57 43.7497 121.677C43.7302 122.659 44.0608 123.5 44.7413 124.2C45.4219 124.9 46.258 125.25 47.2497 125.25ZM45.7913 122.917C45.6261 122.917 45.4875 122.861 45.3757 122.749C45.2639 122.637 45.208 122.499 45.208 122.333C45.208 122.168 45.2639 122.029 45.3757 121.918C45.4875 121.806 45.6261 121.75 45.7913 121.75C45.9566 121.75 46.0952 121.806 46.207 121.918C46.3188 122.029 46.3747 122.168 46.3747 122.333C46.3747 122.499 46.3188 122.637 46.207 122.749C46.0952 122.861 45.9566 122.917 45.7913 122.917ZM48.708 122.917C48.5427 122.917 48.4042 122.861 48.2924 122.749C48.1806 122.637 48.1247 122.499 48.1247 122.333C48.1247 122.168 48.1806 122.029 48.2924 121.918C48.4042 121.806 48.5427 121.75 48.708 121.75C48.8733 121.75 49.0118 121.806 49.1236 121.918C49.2354 122.029 49.2913 122.168 49.2913 122.333C49.2913 122.499 49.2354 122.637 49.1236 122.749C49.0118 122.861 48.8733 122.917 48.708 122.917ZM46.3163 118.381C45.7913 118.527 45.3295 118.777 44.9309 119.132C44.5323 119.487 44.2261 119.912 44.0122 120.408C44.5275 120.253 44.9844 119.998 45.383 119.643C45.7816 119.288 46.0927 118.867 46.3163 118.381ZM47.1476 118.25C47.4684 118.804 47.9084 119.239 48.4674 119.555C49.0264 119.871 49.6268 120.019 50.2684 120C49.9476 119.446 49.5077 119.011 48.9486 118.695C48.3896 118.379 47.7893 118.231 47.1476 118.25ZM51.9163 127.583V124.667H52.7913V126.358C53.3552 125.717 53.7879 125.002 54.0893 124.215C54.3906 123.427 54.5413 122.606 54.5413 121.75C54.5413 120.894 54.3906 120.073 54.0893 119.285C53.7879 118.498 53.3552 117.783 52.7913 117.142V118.833H51.9163V115.917H54.833V116.792H53.6518C54.2254 117.492 54.6629 118.265 54.9643 119.11C55.2656 119.956 55.4163 120.836 55.4163 121.75C55.4163 122.664 55.2656 123.544 54.9643 124.39C54.6629 125.235 54.2254 126.008 53.6518 126.708H54.833V127.583H51.9163Z" fill="#0088CC"/>
<path d="M77.77 115V107.08H79.0955V110.754L82.258 107.08H83.886L80.4815 110.963L84.117 115H82.434L79.0955 111.304V115H77.77ZM87.0751 115.165C86.4811 115.165 85.9623 115.031 85.5186 114.763C85.075 114.496 84.7303 114.127 84.4846 113.658C84.2426 113.185 84.1216 112.642 84.1216 112.03C84.1216 111.407 84.2463 110.86 84.4956 110.391C84.745 109.922 85.0915 109.555 85.5351 109.291C85.9788 109.027 86.4921 108.895 87.0751 108.895C87.6728 108.895 88.1935 109.029 88.6371 109.296C89.0808 109.564 89.4255 109.934 89.6711 110.407C89.9168 110.877 90.0396 111.418 90.0396 112.03C90.0396 112.646 89.915 113.19 89.6656 113.663C89.42 114.133 89.0753 114.501 88.6316 114.769C88.188 115.033 87.6691 115.165 87.0751 115.165ZM87.0751 113.922C87.6031 113.922 87.9955 113.746 88.2521 113.394C88.5088 113.042 88.6371 112.587 88.6371 112.03C88.6371 111.454 88.507 110.996 88.2466 110.655C87.9863 110.31 87.5958 110.138 87.0751 110.138C86.7195 110.138 86.4261 110.219 86.1951 110.38C85.9678 110.538 85.7991 110.759 85.6891 111.045C85.5791 111.328 85.5241 111.656 85.5241 112.03C85.5241 112.606 85.6543 113.066 85.9146 113.41C86.1786 113.751 86.5655 113.922 87.0751 113.922ZM91.3614 115V106.915H92.6869V115H91.3614ZM95.9955 115.165C95.5665 115.165 95.2035 115.084 94.9065 114.923C94.6095 114.758 94.384 114.54 94.23 114.268C94.0796 113.997 94.0045 113.698 94.0045 113.372C94.0045 113.086 94.0521 112.829 94.1475 112.602C94.2428 112.371 94.3895 112.173 94.5875 112.008C94.7855 111.839 95.0421 111.702 95.3575 111.595C95.5958 111.518 95.8745 111.449 96.1935 111.386C96.5161 111.324 96.8645 111.267 97.2385 111.216C97.6161 111.161 98.0103 111.102 98.421 111.04L97.948 111.309C97.9516 110.899 97.86 110.596 97.673 110.402C97.486 110.208 97.1706 110.11 96.727 110.11C96.4593 110.11 96.2008 110.173 95.9515 110.297C95.7021 110.422 95.528 110.637 95.429 110.941L94.219 110.561C94.3656 110.059 94.6443 109.656 95.055 109.351C95.4693 109.047 96.0266 108.895 96.727 108.895C97.255 108.895 97.7188 108.981 98.1185 109.153C98.5218 109.326 98.8206 109.608 99.015 110C99.1213 110.209 99.1855 110.424 99.2075 110.644C99.2295 110.86 99.2405 111.097 99.2405 111.353V115H98.08V113.713L98.2725 113.922C98.0048 114.351 97.6913 114.666 97.332 114.868C96.9763 115.066 96.5308 115.165 95.9955 115.165ZM96.2595 114.109C96.5601 114.109 96.8168 114.056 97.0295 113.949C97.2421 113.843 97.4108 113.713 97.5355 113.559C97.6638 113.405 97.75 113.26 97.794 113.124C97.8636 112.956 97.9021 112.763 97.9095 112.547C97.9205 112.327 97.926 112.149 97.926 112.013L98.333 112.134C97.9333 112.197 97.5905 112.252 97.3045 112.299C97.0185 112.347 96.7728 112.393 96.5675 112.437C96.3621 112.477 96.1806 112.523 96.023 112.574C95.869 112.629 95.7388 112.694 95.6325 112.767C95.5261 112.84 95.4436 112.925 95.385 113.02C95.33 113.115 95.3025 113.227 95.3025 113.355C95.3025 113.502 95.3391 113.632 95.4125 113.746C95.4858 113.856 95.5921 113.944 95.7315 114.01C95.8745 114.076 96.0505 114.109 96.2595 114.109ZM106.224 115.165C105.432 115.165 104.754 114.993 104.189 114.648C103.624 114.3 103.19 113.816 102.885 113.196C102.585 112.576 102.434 111.858 102.434 111.04C102.434 110.222 102.585 109.504 102.885 108.884C103.19 108.264 103.624 107.782 104.189 107.437C104.754 107.089 105.432 106.915 106.224 106.915C107.016 106.915 107.694 107.089 108.259 107.437C108.827 107.782 109.262 108.264 109.562 108.884C109.867 109.504 110.019 110.222 110.019 111.04C110.019 111.858 109.867 112.576 109.562 113.196C109.262 113.816 108.827 114.3 108.259 114.648C107.694 114.993 107.016 115.165 106.224 115.165ZM106.224 113.916C106.756 113.92 107.197 113.803 107.549 113.564C107.905 113.326 108.171 112.991 108.347 112.558C108.527 112.125 108.616 111.619 108.616 111.04C108.616 110.461 108.527 109.958 108.347 109.533C108.171 109.104 107.905 108.77 107.549 108.532C107.197 108.294 106.756 108.171 106.224 108.163C105.692 108.16 105.25 108.277 104.898 108.515C104.546 108.754 104.281 109.089 104.101 109.522C103.925 109.955 103.837 110.461 103.837 111.04C103.837 111.619 103.925 112.123 104.101 112.552C104.277 112.978 104.541 113.31 104.893 113.548C105.249 113.786 105.692 113.909 106.224 113.916ZM110.786 115V113.641H112.144V115H110.786Z" fill="#191C1E"/>
<path d="M120.11 115V107.08H124.657V107.887H120.916V110.637H123.997V111.443H120.916V115H120.11ZM127.13 115.165C126.68 115.165 126.304 115.084 126.003 114.922C125.702 114.76 125.476 114.546 125.325 114.279C125.174 114.012 125.098 113.72 125.098 113.405C125.098 113.081 125.163 112.805 125.293 112.576C125.422 112.348 125.6 112.16 125.827 112.014C126.054 111.868 126.314 111.756 126.609 111.678C126.912 111.605 127.246 111.54 127.61 111.484C127.974 111.427 128.332 111.378 128.683 111.334C129.033 111.291 129.341 111.25 129.605 111.212L129.315 111.385C129.327 110.8 129.214 110.367 128.976 110.083C128.738 109.799 128.323 109.658 127.731 109.658C127.325 109.658 126.982 109.749 126.701 109.933C126.42 110.116 126.223 110.406 126.11 110.802L125.322 110.571C125.46 110.04 125.735 109.628 126.145 109.335C126.556 109.042 127.089 108.895 127.746 108.895C128.287 108.895 128.748 108.996 129.128 109.199C129.508 109.402 129.777 109.697 129.935 110.083C130.008 110.254 130.056 110.446 130.078 110.659C130.1 110.871 130.111 111.089 130.111 111.311V115H129.388V113.508L129.597 113.599C129.396 114.109 129.082 114.497 128.658 114.764C128.233 115.031 127.724 115.165 127.13 115.165ZM127.221 114.465C127.599 114.465 127.929 114.397 128.21 114.262C128.492 114.127 128.719 113.942 128.892 113.706C129.065 113.47 129.177 113.202 129.227 112.903C129.272 112.712 129.297 112.503 129.301 112.275C129.306 112.047 129.308 111.875 129.308 111.759L129.616 111.92C129.338 111.957 129.039 111.994 128.719 112.031C128.399 112.068 128.084 112.11 127.773 112.156C127.463 112.203 127.183 112.26 126.935 112.327C126.767 112.376 126.604 112.443 126.447 112.53C126.29 112.616 126.161 112.73 126.06 112.871C125.959 113.013 125.909 113.191 125.909 113.405C125.909 113.577 125.952 113.744 126.038 113.906C126.124 114.068 126.263 114.202 126.455 114.307C126.647 114.412 126.902 114.465 127.221 114.465ZM134.003 115.165C133.404 115.165 132.898 115.031 132.485 114.764C132.072 114.496 131.758 114.126 131.543 113.654C131.327 113.183 131.216 112.641 131.209 112.03C131.216 111.407 131.33 110.86 131.549 110.389C131.768 109.919 132.085 109.552 132.5 109.289C132.914 109.026 133.417 108.895 134.01 108.895C134.61 108.895 135.133 109.041 135.579 109.334C136.024 109.627 136.329 110.028 136.492 110.538L135.701 110.794C135.561 110.437 135.341 110.161 135.04 109.964C134.738 109.767 134.393 109.669 134.003 109.669C133.565 109.669 133.204 109.769 132.919 109.97C132.635 110.171 132.422 110.449 132.283 110.804C132.144 111.159 132.072 111.568 132.067 112.03C132.074 112.74 132.239 113.311 132.563 113.743C132.886 114.175 133.366 114.391 134.003 114.391C134.406 114.391 134.75 114.298 135.033 114.113C135.317 113.927 135.533 113.657 135.682 113.302L136.492 113.541C136.272 114.069 135.95 114.471 135.524 114.749C135.099 115.026 134.592 115.165 134.003 115.165ZM139.974 115.165C139.397 115.165 138.896 115.037 138.472 114.781C138.047 114.525 137.717 114.164 137.483 113.697C137.249 113.231 137.132 112.684 137.132 112.056C137.132 111.407 137.248 110.846 137.479 110.373C137.71 109.9 138.036 109.535 138.456 109.279C138.876 109.023 139.373 108.895 139.945 108.895C140.531 108.895 141.032 109.029 141.446 109.298C141.861 109.567 142.174 109.953 142.387 110.455C142.599 110.957 142.695 111.558 142.675 112.257H141.851V111.971C141.837 111.2 141.671 110.618 141.354 110.225C141.036 109.832 140.574 109.636 139.967 109.636C139.327 109.636 138.838 109.843 138.499 110.258C138.16 110.673 137.99 111.264 137.99 112.03C137.99 112.779 138.16 113.36 138.499 113.773C138.838 114.185 139.32 114.391 139.945 114.391C140.37 114.391 140.741 114.293 141.058 114.096C141.374 113.899 141.624 113.616 141.807 113.247L142.563 113.537C142.327 114.055 141.981 114.456 141.524 114.74C141.068 115.023 140.551 115.165 139.974 115.165ZM137.704 112.257V111.579H142.244V112.257H137.704ZM146.558 115.165C146.011 115.165 145.55 115.026 145.173 114.749C144.797 114.471 144.511 114.096 144.316 113.621C144.121 113.147 144.024 112.614 144.024 112.023C144.024 111.424 144.122 110.888 144.317 110.417C144.513 109.945 144.801 109.573 145.183 109.302C145.564 109.031 146.033 108.895 146.591 108.895C147.134 108.895 147.601 109.033 147.989 109.308C148.378 109.583 148.676 109.956 148.883 110.429C149.09 110.901 149.194 111.432 149.194 112.023C149.194 112.617 149.09 113.151 148.881 113.625C148.673 114.099 148.373 114.474 147.98 114.751C147.588 115.027 147.114 115.165 146.558 115.165ZM143.888 115V107.08H144.698V110.527H144.614V115H143.888ZM146.477 114.413C146.89 114.413 147.234 114.308 147.509 114.098C147.784 113.888 147.991 113.602 148.129 113.241C148.267 112.88 148.336 112.474 148.336 112.023C148.336 111.575 148.268 111.172 148.132 110.814C147.997 110.455 147.79 110.171 147.514 109.961C147.237 109.751 146.885 109.647 146.459 109.647C146.047 109.647 145.704 109.747 145.431 109.949C145.158 110.151 144.953 110.431 144.818 110.789C144.682 111.147 144.614 111.558 144.614 112.023C144.614 112.482 144.681 112.892 144.816 113.253C144.95 113.613 145.155 113.897 145.431 114.104C145.707 114.31 146.055 114.413 146.477 114.413ZM152.886 115.165C152.296 115.165 151.791 115.031 151.372 114.763C150.953 114.496 150.631 114.126 150.408 113.653C150.185 113.181 150.074 112.637 150.074 112.023C150.074 111.401 150.188 110.855 150.415 110.385C150.642 109.915 150.966 109.549 151.387 109.287C151.807 109.026 152.307 108.895 152.886 108.895C153.479 108.895 153.985 109.028 154.405 109.295C154.825 109.561 155.146 109.929 155.369 110.399C155.591 110.869 155.702 111.41 155.702 112.023C155.702 112.646 155.59 113.193 155.366 113.664C155.141 114.136 154.819 114.503 154.398 114.768C153.977 115.033 153.473 115.165 152.886 115.165ZM152.886 114.391C153.545 114.391 154.036 114.172 154.359 113.732C154.683 113.293 154.844 112.723 154.844 112.023C154.844 111.306 154.681 110.735 154.356 110.308C154.03 109.882 153.54 109.669 152.886 109.669C152.443 109.669 152.076 109.769 151.788 109.969C151.5 110.17 151.285 110.447 151.144 110.8C151.002 111.153 150.932 111.561 150.932 112.023C150.932 112.738 151.097 113.311 151.428 113.743C151.758 114.175 152.244 114.391 152.886 114.391ZM159.393 115.165C158.802 115.165 158.298 115.031 157.878 114.763C157.459 114.496 157.138 114.126 156.915 113.653C156.692 113.181 156.58 112.637 156.58 112.023C156.58 111.401 156.694 110.855 156.921 110.385C157.149 109.915 157.473 109.549 157.893 109.287C158.313 109.026 158.813 108.895 159.393 108.895C159.985 108.895 160.492 109.028 160.912 109.295C161.331 109.561 161.653 109.929 161.875 110.399C162.097 110.869 162.209 111.41 162.209 112.023C162.209 112.646 162.097 113.193 161.872 113.664C161.648 114.136 161.325 114.503 160.904 114.768C160.483 115.033 159.979 115.165 159.393 115.165ZM159.393 114.391C160.051 114.391 160.542 114.172 160.866 113.732C161.189 113.293 161.351 112.723 161.351 112.023C161.351 111.306 161.188 110.735 160.862 110.308C160.536 109.882 160.047 109.669 159.393 109.669C158.949 109.669 158.583 109.769 158.294 109.969C158.006 110.17 157.791 110.447 157.65 110.8C157.509 111.153 157.438 111.561 157.438 112.023C157.438 112.738 157.604 113.311 157.934 113.743C158.265 114.175 158.751 114.391 159.393 114.391ZM163.413 115L163.417 107.08H164.231V111.92L166.882 109.06H167.96L165.177 112.03L168.323 115H167.146L164.231 112.14V115H163.413Z" fill="#3C4A3F" fill-opacity="0.6"/>
<path d="M77.91 134.5V125.14H81.524C81.615 125.14 81.7168 125.144 81.8295 125.153C81.9465 125.157 82.0635 125.17 82.1805 125.192C82.6702 125.266 83.084 125.437 83.422 125.705C83.7643 125.97 84.0222 126.303 84.1955 126.706C84.3732 127.109 84.462 127.556 84.462 128.045C84.462 128.531 84.3732 128.975 84.1955 129.378C84.0178 129.781 83.7578 130.117 83.4155 130.385C83.0775 130.65 82.6658 130.819 82.1805 130.892C82.0635 130.91 81.9465 130.923 81.8295 130.931C81.7168 130.94 81.615 130.944 81.524 130.944H78.8655V134.5H77.91ZM78.8655 130.034H81.498C81.576 130.034 81.667 130.03 81.771 130.021C81.875 130.013 81.9768 129.998 82.0765 129.976C82.3972 129.907 82.6593 129.774 82.863 129.579C83.071 129.384 83.2248 129.153 83.3245 128.884C83.4285 128.615 83.4805 128.336 83.4805 128.045C83.4805 127.755 83.4285 127.476 83.3245 127.207C83.2248 126.934 83.071 126.7 82.863 126.505C82.6593 126.31 82.3972 126.178 82.0765 126.108C81.9768 126.087 81.875 126.074 81.771 126.069C81.667 126.061 81.576 126.056 81.498 126.056H78.8655V130.034ZM85.7557 134.5V127.48H86.6137V129.17L86.4447 128.949C86.5227 128.741 86.6245 128.55 86.7502 128.377C86.8759 128.199 87.0124 128.054 87.1597 127.941C87.3417 127.781 87.554 127.66 87.7967 127.577C88.0394 127.491 88.2842 127.441 88.5312 127.428C88.7782 127.411 89.0035 127.428 89.2072 127.48V128.377C88.9515 128.312 88.672 128.297 88.3687 128.331C88.0654 128.366 87.7859 128.487 87.5302 128.695C87.2962 128.877 87.1207 129.096 87.0037 129.352C86.8867 129.603 86.8087 129.872 86.7697 130.158C86.7307 130.44 86.7112 130.719 86.7112 130.996V134.5H85.7557ZM90.5703 126.147V125.075H91.5258V126.147H90.5703ZM90.5703 134.5V127.48H91.5258V134.5H90.5703ZM96.3865 134.695C95.6801 134.695 95.0821 134.537 94.5925 134.22C94.1028 133.904 93.7301 133.469 93.4745 132.914C93.2231 132.355 93.0931 131.714 93.0845 130.99C93.0931 130.253 93.2275 129.608 93.4875 129.053C93.7475 128.494 94.1223 128.061 94.612 127.753C95.1016 127.441 95.6953 127.285 96.393 127.285C97.1036 127.285 97.7211 127.458 98.2455 127.805C98.7741 128.152 99.136 128.626 99.331 129.228L98.395 129.527C98.2303 129.107 97.9681 128.782 97.6085 128.552C97.2531 128.318 96.8458 128.201 96.3865 128.201C95.8708 128.201 95.444 128.321 95.106 128.559C94.768 128.793 94.5166 129.12 94.352 129.54C94.1873 129.961 94.1028 130.444 94.0985 130.99C94.1071 131.831 94.3021 132.507 94.6835 133.018C95.0648 133.525 95.6325 133.778 96.3865 133.778C96.8631 133.778 97.2683 133.67 97.602 133.453C97.94 133.232 98.1956 132.912 98.369 132.491L99.331 132.777C99.071 133.401 98.6896 133.878 98.187 134.207C97.6843 134.533 97.0841 134.695 96.3865 134.695ZM103.453 134.695C102.768 134.695 102.174 134.543 101.672 134.24C101.173 133.937 100.786 133.51 100.508 132.959C100.231 132.409 100.092 131.763 100.092 131.022C100.092 130.255 100.229 129.592 100.502 129.033C100.775 128.474 101.158 128.043 101.652 127.74C102.151 127.437 102.738 127.285 103.414 127.285C104.107 127.285 104.699 127.445 105.188 127.766C105.678 128.082 106.048 128.537 106.3 129.131C106.551 129.725 106.666 130.433 106.644 131.256H105.669V130.919C105.652 130.008 105.455 129.322 105.078 128.858C104.705 128.394 104.159 128.162 103.44 128.162C102.686 128.162 102.107 128.407 101.704 128.897C101.306 129.387 101.106 130.084 101.106 130.99C101.106 131.874 101.306 132.561 101.704 133.05C102.107 133.536 102.677 133.778 103.414 133.778C103.916 133.778 104.354 133.664 104.727 133.434C105.104 133.2 105.401 132.864 105.617 132.426L106.508 132.771C106.23 133.382 105.821 133.856 105.279 134.194C104.742 134.528 104.133 134.695 103.453 134.695ZM100.768 131.256V130.457H106.131V131.256H100.768ZM111.385 134.5V126.96C111.385 126.778 111.393 126.598 111.411 126.42C111.432 126.243 111.474 126.074 111.534 125.913C111.595 125.749 111.69 125.597 111.82 125.458C111.963 125.302 112.119 125.19 112.288 125.12C112.457 125.047 112.633 124.999 112.815 124.977C113.001 124.956 113.183 124.945 113.361 124.945H114.258V125.751H113.426C113.062 125.751 112.789 125.84 112.607 126.017C112.429 126.195 112.34 126.475 112.34 126.856V134.5H111.385ZM110.169 128.299V127.48H114.258V128.299H110.169ZM117.975 134.695C117.278 134.695 116.682 134.537 116.188 134.22C115.694 133.904 115.315 133.466 115.05 132.907C114.786 132.348 114.654 131.707 114.654 130.983C114.654 130.247 114.788 129.601 115.057 129.046C115.325 128.492 115.707 128.061 116.201 127.753C116.699 127.441 117.291 127.285 117.975 127.285C118.677 127.285 119.275 127.443 119.769 127.759C120.268 128.071 120.647 128.507 120.907 129.066C121.171 129.621 121.303 130.26 121.303 130.983C121.303 131.72 121.171 132.368 120.907 132.927C120.642 133.482 120.261 133.915 119.763 134.227C119.264 134.539 118.669 134.695 117.975 134.695ZM117.975 133.778C118.755 133.778 119.336 133.521 119.717 133.005C120.099 132.485 120.289 131.811 120.289 130.983C120.289 130.134 120.096 129.458 119.711 128.955C119.329 128.453 118.751 128.201 117.975 128.201C117.451 128.201 117.018 128.321 116.675 128.559C116.337 128.793 116.084 129.12 115.915 129.54C115.75 129.956 115.668 130.437 115.668 130.983C115.668 131.828 115.863 132.507 116.253 133.018C116.643 133.525 117.217 133.778 117.975 133.778ZM122.737 134.5V127.48H123.595V129.17L123.426 128.949C123.504 128.741 123.606 128.55 123.732 128.377C123.857 128.199 123.994 128.054 124.141 127.941C124.323 127.781 124.535 127.66 124.778 127.577C125.021 127.491 125.266 127.441 125.513 127.428C125.76 127.411 125.985 127.428 126.189 127.48V128.377C125.933 128.312 125.653 128.297 125.35 128.331C125.047 128.366 124.767 128.487 124.512 128.695C124.278 128.877 124.102 129.096 123.985 129.352C123.868 129.603 123.79 129.872 123.751 130.158C123.712 130.44 123.693 130.719 123.693 130.996V134.5H122.737ZM133.177 134.695C132.531 134.695 131.985 134.533 131.539 134.207C131.092 133.878 130.754 133.434 130.525 132.875C130.295 132.312 130.18 131.681 130.18 130.983C130.18 130.273 130.295 129.64 130.525 129.085C130.759 128.526 131.101 128.087 131.552 127.766C132.002 127.445 132.557 127.285 133.216 127.285C133.857 127.285 134.407 127.447 134.867 127.772C135.326 128.097 135.677 128.539 135.92 129.098C136.167 129.657 136.29 130.286 136.29 130.983C136.29 131.685 136.167 132.316 135.92 132.875C135.673 133.434 135.317 133.878 134.854 134.207C134.39 134.533 133.831 134.695 133.177 134.695ZM130.018 134.5V125.14H130.98V129.215H130.876V134.5H130.018ZM133.079 133.804C133.569 133.804 133.976 133.681 134.301 133.434C134.626 133.187 134.869 132.851 135.029 132.426C135.194 131.997 135.276 131.516 135.276 130.983C135.276 130.455 135.196 129.978 135.036 129.553C134.875 129.129 134.631 128.793 134.301 128.546C133.976 128.299 133.562 128.175 133.06 128.175C132.57 128.175 132.163 128.295 131.838 128.533C131.517 128.771 131.277 129.103 131.116 129.527C130.956 129.948 130.876 130.433 130.876 130.983C130.876 131.525 130.956 132.01 131.116 132.439C131.277 132.864 131.519 133.198 131.844 133.44C132.169 133.683 132.581 133.804 133.079 133.804ZM140.402 134.676C139.982 134.676 139.613 134.611 139.297 134.48C138.985 134.351 138.719 134.175 138.498 133.954C138.281 133.733 138.105 133.482 137.971 133.2C137.837 132.914 137.739 132.613 137.679 132.296C137.618 131.976 137.588 131.657 137.588 131.341V127.48H138.55V131.061C138.55 131.447 138.586 131.805 138.66 132.134C138.734 132.463 138.851 132.751 139.011 132.998C139.176 133.241 139.386 133.43 139.642 133.564C139.902 133.698 140.216 133.765 140.584 133.765C140.922 133.765 141.219 133.707 141.475 133.59C141.735 133.473 141.951 133.306 142.125 133.089C142.302 132.868 142.437 132.602 142.528 132.29C142.619 131.974 142.664 131.618 142.664 131.224L143.34 131.373C143.34 132.093 143.214 132.697 142.963 133.187C142.712 133.677 142.365 134.047 141.923 134.298C141.481 134.55 140.974 134.676 140.402 134.676ZM142.762 134.5V132.771H142.664V127.48H143.62V134.5H142.762ZM145.566 134.5V124.945H146.522V134.5H145.566ZM148.464 134.5L148.471 125.14H149.433V130.86L152.566 127.48H153.84L150.551 130.99L154.269 134.5H152.878L149.433 131.12V134.5H148.464ZM160.454 134.695C159.756 134.695 159.16 134.537 158.666 134.22C158.172 133.904 157.793 133.466 157.529 132.907C157.264 132.348 157.132 131.707 157.132 130.983C157.132 130.247 157.267 129.601 157.535 129.046C157.804 128.492 158.185 128.061 158.679 127.753C159.178 127.441 159.769 127.285 160.454 127.285C161.156 127.285 161.754 127.443 162.248 127.759C162.746 128.071 163.125 128.507 163.385 129.066C163.65 129.621 163.782 130.26 163.782 130.983C163.782 131.72 163.65 132.368 163.385 132.927C163.121 133.482 162.74 133.915 162.241 134.227C161.743 134.539 161.147 134.695 160.454 134.695ZM160.454 133.778C161.234 133.778 161.814 133.521 162.196 133.005C162.577 132.485 162.768 131.811 162.768 130.983C162.768 130.134 162.575 129.458 162.189 128.955C161.808 128.453 161.229 128.201 160.454 128.201C159.929 128.201 159.496 128.321 159.154 128.559C158.816 128.793 158.562 129.12 158.393 129.54C158.229 129.956 158.146 130.437 158.146 130.983C158.146 131.828 158.341 132.507 158.731 133.018C159.121 133.525 159.695 133.778 160.454 133.778ZM165.216 134.5V127.48H166.074V129.17L165.905 128.949C165.983 128.741 166.084 128.55 166.21 128.377C166.336 128.199 166.472 128.054 166.62 127.941C166.802 127.781 167.014 127.66 167.257 127.577C167.499 127.491 167.744 127.441 167.991 127.428C168.238 127.411 168.463 127.428 168.667 127.48V128.377C168.411 128.312 168.132 128.297 167.829 128.331C167.525 128.366 167.246 128.487 166.99 128.695C166.756 128.877 166.581 129.096 166.464 129.352C166.347 129.603 166.269 129.872 166.23 130.158C166.191 130.44 166.171 130.719 166.171 130.996V134.5H165.216ZM172.497 134.695C171.842 134.695 171.283 134.533 170.82 134.207C170.356 133.878 170.001 133.434 169.754 132.875C169.507 132.316 169.383 131.685 169.383 130.983C169.383 130.286 169.505 129.657 169.747 129.098C169.994 128.539 170.347 128.097 170.807 127.772C171.266 127.447 171.816 127.285 172.458 127.285C173.116 127.285 173.671 127.445 174.122 127.766C174.572 128.087 174.913 128.526 175.142 129.085C175.376 129.64 175.493 130.273 175.493 130.983C175.493 131.681 175.378 132.312 175.149 132.875C174.919 133.434 174.581 133.878 174.135 134.207C173.688 134.533 173.142 134.695 172.497 134.695ZM172.594 133.804C173.093 133.804 173.504 133.683 173.829 133.44C174.154 133.198 174.397 132.864 174.557 132.439C174.718 132.01 174.798 131.525 174.798 130.983C174.798 130.433 174.718 129.948 174.557 129.527C174.397 129.103 174.154 128.771 173.829 128.533C173.509 128.295 173.103 128.175 172.614 128.175C172.111 128.175 171.695 128.299 171.366 128.546C171.036 128.793 170.792 129.129 170.631 129.553C170.475 129.978 170.397 130.455 170.397 130.983C170.397 131.516 170.477 131.997 170.638 132.426C170.802 132.851 171.047 133.187 171.372 133.434C171.697 133.681 172.105 133.804 172.594 133.804ZM174.798 134.5V129.215H174.694V125.14H175.656V134.5H174.798ZM180.45 134.695C179.765 134.695 179.172 134.543 178.669 134.24C178.171 133.937 177.783 133.51 177.505 132.959C177.228 132.409 177.089 131.763 177.089 131.022C177.089 130.255 177.226 129.592 177.499 129.033C177.772 128.474 178.155 128.043 178.649 127.74C179.148 127.437 179.735 127.285 180.411 127.285C181.104 127.285 181.696 127.445 182.185 127.766C182.675 128.082 183.046 128.537 183.297 129.131C183.548 129.725 183.663 130.433 183.641 131.256H182.666V130.919C182.649 130.008 182.452 129.322 182.075 128.858C181.702 128.394 181.156 128.162 180.437 128.162C179.683 128.162 179.104 128.407 178.701 128.897C178.303 129.387 178.103 130.084 178.103 130.99C178.103 131.874 178.303 132.561 178.701 133.05C179.104 133.536 179.674 133.778 180.411 133.778C180.914 133.778 181.351 133.664 181.724 133.434C182.101 133.2 182.398 132.864 182.614 132.426L183.505 132.771C183.228 133.382 182.818 133.856 182.276 134.194C181.739 134.528 181.13 134.695 180.45 134.695ZM177.765 131.256V130.457H183.128V131.256H177.765ZM185.084 134.5V127.48H185.942V129.17L185.773 128.949C185.851 128.741 185.953 128.55 186.078 128.377C186.204 128.199 186.34 128.054 186.488 127.941C186.67 127.781 186.882 127.66 187.125 127.577C187.367 127.491 187.612 127.441 187.859 127.428C188.106 127.411 188.332 127.428 188.535 127.48V128.377C188.28 128.312 188 128.297 187.697 128.331C187.393 128.366 187.114 128.487 186.858 128.695C186.624 128.877 186.449 129.096 186.332 129.352C186.215 129.603 186.137 129.872 186.098 130.158C186.059 130.44 186.039 130.719 186.039 130.996V134.5H185.084ZM195.302 134.695C194.605 134.695 194.009 134.537 193.515 134.22C193.021 133.904 192.642 133.466 192.377 132.907C192.113 132.348 191.981 131.707 191.981 130.983C191.981 130.247 192.115 129.601 192.384 129.046C192.653 128.492 193.034 128.061 193.528 127.753C194.026 127.441 194.618 127.285 195.302 127.285C196.004 127.285 196.602 127.443 197.096 127.759C197.595 128.071 197.974 128.507 198.234 129.066C198.498 129.621 198.63 130.26 198.63 130.983C198.63 131.72 198.498 132.368 198.234 132.927C197.97 133.482 197.588 133.915 197.09 134.227C196.592 134.539 195.996 134.695 195.302 134.695ZM195.302 133.778C196.082 133.778 196.663 133.521 197.044 133.005C197.426 132.485 197.616 131.811 197.616 130.983C197.616 130.134 197.424 129.458 197.038 128.955C196.657 128.453 196.078 128.201 195.302 128.201C194.778 128.201 194.345 128.321 194.002 128.559C193.664 128.793 193.411 129.12 193.242 129.54C193.077 129.956 192.995 130.437 192.995 130.983C192.995 131.828 193.19 132.507 193.58 133.018C193.97 133.525 194.544 133.778 195.302 133.778ZM200.76 134.5V126.96C200.76 126.778 200.768 126.598 200.786 126.42C200.807 126.243 200.849 126.074 200.909 125.913C200.97 125.749 201.065 125.597 201.195 125.458C201.338 125.302 201.494 125.19 201.663 125.12C201.832 125.047 202.008 124.999 202.19 124.977C202.376 124.956 202.558 124.945 202.736 124.945H203.633V125.751H202.801C202.437 125.751 202.164 125.84 201.982 126.017C201.804 126.195 201.715 126.475 201.715 126.856V134.5H200.76ZM199.544 128.299V127.48H203.633V128.299H199.544ZM210.038 134.695C209.552 134.695 209.104 134.595 208.692 134.396C208.281 134.197 207.93 133.921 207.639 133.57C207.349 133.219 207.141 132.816 207.015 132.361L207.932 132.114C208.014 132.452 208.164 132.745 208.38 132.992C208.597 133.235 208.85 133.423 209.141 133.557C209.435 133.692 209.743 133.759 210.064 133.759C210.48 133.759 210.852 133.659 211.182 133.46C211.515 133.256 211.78 132.988 211.975 132.654C212.17 132.32 212.267 131.954 212.267 131.555C212.267 131.144 212.165 130.773 211.962 130.444C211.758 130.11 211.489 129.846 211.156 129.651C210.822 129.456 210.458 129.358 210.064 129.358C209.622 129.358 209.24 129.456 208.92 129.651C208.599 129.842 208.343 130.082 208.153 130.372L207.282 130.008L207.568 125.14H212.566V126.056H207.99L208.465 125.608L208.211 129.761L207.971 129.443C208.239 129.135 208.564 128.895 208.946 128.721C209.327 128.548 209.728 128.461 210.148 128.461C210.725 128.461 211.245 128.6 211.708 128.877C212.172 129.15 212.54 129.521 212.813 129.989C213.086 130.457 213.223 130.979 213.223 131.555C213.223 132.127 213.078 132.652 212.787 133.128C212.497 133.601 212.111 133.98 211.63 134.266C211.149 134.552 210.618 134.695 210.038 134.695ZM217.833 134.695C217.257 134.695 216.737 134.561 216.273 134.292C215.814 134.023 215.45 133.659 215.181 133.2C214.912 132.736 214.778 132.216 214.778 131.64V128C214.778 127.424 214.912 126.906 215.181 126.446C215.45 125.983 215.814 125.617 216.273 125.348C216.737 125.079 217.257 124.945 217.833 124.945C218.409 124.945 218.927 125.079 219.387 125.348C219.85 125.617 220.216 125.983 220.485 126.446C220.754 126.906 220.888 127.424 220.888 128V131.64C220.888 132.216 220.754 132.736 220.485 133.2C220.216 133.659 219.85 134.023 219.387 134.292C218.927 134.561 218.409 134.695 217.833 134.695ZM217.833 133.772C218.219 133.772 218.57 133.679 218.886 133.492C219.202 133.302 219.454 133.048 219.64 132.732C219.826 132.416 219.92 132.067 219.92 131.685V127.954C219.92 127.569 219.826 127.218 219.64 126.901C219.454 126.585 219.202 126.334 218.886 126.147C218.57 125.957 218.219 125.861 217.833 125.861C217.447 125.861 217.096 125.957 216.78 126.147C216.464 126.334 216.212 126.585 216.026 126.901C215.84 127.218 215.747 127.569 215.747 127.954V131.685C215.747 132.067 215.84 132.416 216.026 132.732C216.212 133.048 216.464 133.302 216.78 133.492C217.096 133.679 217.447 133.772 217.833 133.772ZM225.768 134.695C225.191 134.695 224.671 134.561 224.208 134.292C223.748 134.023 223.384 133.659 223.116 133.2C222.847 132.736 222.713 132.216 222.713 131.64V128C222.713 127.424 222.847 126.906 223.116 126.446C223.384 125.983 223.748 125.617 224.208 125.348C224.671 125.079 225.191 124.945 225.768 124.945C226.344 124.945 226.862 125.079 227.321 125.348C227.785 125.617 228.151 125.983 228.42 126.446C228.688 126.906 228.823 127.424 228.823 128V131.64C228.823 132.216 228.688 132.736 228.42 133.2C228.151 133.659 227.785 134.023 227.321 134.292C226.862 134.561 226.344 134.695 225.768 134.695ZM225.768 133.772C226.153 133.772 226.504 133.679 226.821 133.492C227.137 133.302 227.388 133.048 227.575 132.732C227.761 132.416 227.854 132.067 227.854 131.685V127.954C227.854 127.569 227.761 127.218 227.575 126.901C227.388 126.585 227.137 126.334 226.821 126.147C226.504 125.957 226.153 125.861 225.768 125.861C225.382 125.861 225.031 125.957 224.715 126.147C224.398 126.334 224.147 126.585 223.961 126.901C223.774 127.218 223.681 127.569 223.681 127.954V131.685C223.681 132.067 223.774 132.416 223.961 132.732C224.147 133.048 224.398 133.302 224.715 133.492C225.031 133.679 225.382 133.772 225.768 133.772ZM232.48 131.945C232.48 131.607 232.495 131.311 232.526 131.055C232.56 130.795 232.647 130.535 232.786 130.275C232.916 130.028 233.076 129.824 233.267 129.664C233.457 129.499 233.657 129.345 233.865 129.202C234.073 129.055 234.27 128.882 234.456 128.682C234.625 128.487 234.738 128.29 234.794 128.091C234.851 127.892 234.879 127.681 234.879 127.46C234.879 127.239 234.851 127.042 234.794 126.869C234.742 126.696 234.66 126.546 234.547 126.42C234.374 126.208 234.162 126.063 233.91 125.985C233.659 125.907 233.397 125.868 233.124 125.868C232.855 125.868 232.604 125.907 232.37 125.985C232.14 126.059 231.949 126.173 231.798 126.329C231.65 126.468 231.542 126.635 231.473 126.83C231.408 127.025 231.375 127.231 231.375 127.447H230.387C230.405 127.105 230.478 126.771 230.608 126.446C230.743 126.117 230.938 125.842 231.193 125.621C231.449 125.387 231.746 125.218 232.084 125.114C232.426 125.006 232.771 124.951 233.117 124.951C233.542 124.951 233.945 125.016 234.326 125.146C234.708 125.272 235.028 125.484 235.288 125.783C235.496 126.004 235.648 126.258 235.743 126.544C235.843 126.826 235.893 127.127 235.893 127.447C235.893 127.807 235.826 128.145 235.691 128.461C235.557 128.778 235.368 129.059 235.126 129.306C234.978 129.467 234.812 129.616 234.625 129.755C234.439 129.889 234.259 130.03 234.086 130.177C233.917 130.32 233.787 130.476 233.696 130.645C233.583 130.853 233.52 131.051 233.507 131.237C233.499 131.423 233.494 131.659 233.494 131.945H232.48ZM232.487 134.5V133.226H233.494V134.5H232.487Z" fill="#3C4A3F"/>
</g>
<defs>
<filter id="filter0_i_232_1578" x="11" y="0" width="346.67" height="257" filterUnits="userSpaceOnUse" color-interpolation-filters="sRGB">
<feFlood flood-opacity="0" result="BackgroundImageFix"/>
<feBlend mode="normal" in="SourceGraphic" in2="BackgroundImageFix" result="shape"/>
<feColorMatrix in="SourceAlpha" type="matrix" values="0 0 0 0 0 0 0 0 0 0 0 0 0 0 0 0 0 0 127 0" result="hardAlpha"/>
<feMorphology radius="1" operator="erode" in="SourceAlpha" result="effect1_innerShadow_232_1578"/>
<feOffset dy="2"/>
<feGaussianBlur stdDeviation="2"/>
<feComposite in2="hardAlpha" operator="arithmetic" k2="-1" k3="1"/>
<feColorMatrix type="matrix" values="0 0 0 0 0 0 0 0 0 0 0 0 0 0 0 0 0 0 0.05 0"/>
<feBlend mode="normal" in2="shape" result="effect1_innerShadow_232_1578"/>
</filter>
<filter id="filter1_dd_232_1578" x="196.715" y="194.189" width="156.2" height="66" filterUnits="userSpaceOnUse" color-interpolation-filters="sRGB">
<feFlood flood-opacity="0" result="BackgroundImageFix"/>
<feColorMatrix in="SourceAlpha" type="matrix" values="0 0 0 0 0 0 0 0 0 0 0 0 0 0 0 0 0 0 127 0" result="hardAlpha"/>
<feMorphology radius="4" operator="erode" in="SourceAlpha" result="effect1_dropShadow_232_1578"/>
<feOffset dy="4"/>
<feGaussianBlur stdDeviation="3"/>
<feComposite in2="hardAlpha" operator="out"/>
<feColorMatrix type="matrix" values="0 0 0 0 0 0 0 0 0 0 0 0 0 0 0 0 0 0 0.1 0"/>
<feBlend mode="normal" in2="BackgroundImageFix" result="effect1_dropShadow_232_1578"/>
<feColorMatrix in="SourceAlpha" type="matrix" values="0 0 0 0 0 0 0 0 0 0 0 0 0 0 0 0 0 0 127 0" result="hardAlpha"/>
<feMorphology radius="3" operator="erode" in="SourceAlpha" result="effect2_dropShadow_232_1578"/>
<feOffset dy="10"/>
<feGaussianBlur stdDeviation="7.5"/>
<feComposite in2="hardAlpha" operator="out"/>
<feColorMatrix type="matrix" values="0 0 0 0 0 0 0 0 0 0 0 0 0 0 0 0 0 0 0.1 0"/>
<feBlend mode="normal" in2="effect1_dropShadow_232_1578" result="effect2_dropShadow_232_1578"/>
<feBlend mode="normal" in="SourceGraphic" in2="effect2_dropShadow_232_1578" result="shape"/>
</filter>
<filter id="filter2_d_232_1578" x="16" y="7" width="352.67" height="102" filterUnits="userSpaceOnUse" color-interpolation-filters="sRGB">
<feFlood flood-opacity="0" result="BackgroundImageFix"/>
<feColorMatrix in="SourceAlpha" type="matrix" values="0 0 0 0 0 0 0 0 0 0 0 0 0 0 0 0 0 0 127 0" result="hardAlpha"/>
<feMorphology radius="10" operator="erode" in="SourceAlpha" result="effect1_dropShadow_232_1578"/>
<feOffset dy="10"/>
<feGaussianBlur stdDeviation="15"/>
<feComposite in2="hardAlpha" operator="out"/>
<feColorMatrix type="matrix" values="0 0 0 0 0 0 0 0 0 0 0 0 0 0 0 0 0 0 0.04 0"/>
<feBlend mode="normal" in2="BackgroundImageFix" result="effect1_dropShadow_232_1578"/>
<feBlend mode="normal" in="SourceGraphic" in2="effect1_dropShadow_232_1578" result="shape"/>
</filter>
<filter id="filter3_d_232_1578" x="0" y="81" width="352.67" height="102" filterUnits="userSpaceOnUse" color-interpolation-filters="sRGB">
<feFlood flood-opacity="0" result="BackgroundImageFix"/>
<feColorMatrix in="SourceAlpha" type="matrix" values="0 0 0 0 0 0 0 0 0 0 0 0 0 0 0 0 0 0 127 0" result="hardAlpha"/>
<feMorphology radius="10" operator="erode" in="SourceAlpha" result="effect1_dropShadow_232_1578"/>
<feOffset dy="10"/>
<feGaussianBlur stdDeviation="15"/>
<feComposite in2="hardAlpha" operator="out"/>
<feColorMatrix type="matrix" values="0 0 0 0 0 0 0 0 0 0 0 0 0 0 0 0 0 0 0.04 0"/>
<feBlend mode="normal" in2="BackgroundImageFix" result="effect1_dropShadow_232_1578"/>
<feBlend mode="normal" in="SourceGraphic" in2="effect1_dropShadow_232_1578" result="shape"/>
</filter>
</defs>
</svg>
