<svg width="20" height="20" viewBox="0 0 20 20" fill="none" xmlns="http://www.w3.org/2000/svg">
<path d="M15.3125 0H4.6875C2.09867 0 0 2.09867 0 4.6875V15.3125C0 17.9013 2.09867 20 4.6875 20H15.3125C17.9013 20 20 17.9013 20 15.3125V4.6875C20 2.09867 17.9013 0 15.3125 0Z" fill="url(#paint0_radial_232_2078)"/>
<path d="M15.3125 0H4.6875C2.09867 0 0 2.09867 0 4.6875V15.3125C0 17.9013 2.09867 20 4.6875 20H15.3125C17.9013 20 20 17.9013 20 15.3125V4.6875C20 2.09867 17.9013 0 15.3125 0Z" fill="url(#paint1_radial_232_2078)"/>
<path d="M10.0007 2.18848C7.87898 2.18848 7.61266 2.19777 6.77938 2.23566C5.94766 2.27379 5.37992 2.40543 4.8832 2.59863C4.3693 2.79816 3.93344 3.06512 3.49922 3.49949C3.06461 3.93379 2.79766 4.36965 2.5975 4.88332C2.40375 5.3802 2.27195 5.94816 2.23453 6.77949C2.19727 7.61285 2.1875 7.87926 2.1875 10.0011C2.1875 12.1229 2.19688 12.3883 2.23469 13.2216C2.27297 14.0533 2.40461 14.6211 2.59766 15.1178C2.79734 15.6317 3.0643 16.0675 3.49867 16.5018C3.93281 16.9364 4.36867 17.2039 4.88219 17.4035C5.3793 17.5967 5.94711 17.7283 6.77867 17.7664C7.61203 17.8043 7.87813 17.8136 9.99977 17.8136C12.1217 17.8136 12.3872 17.8043 13.2205 17.7664C14.0522 17.7283 14.6205 17.5967 15.1177 17.4035C15.6313 17.2039 16.0666 16.9364 16.5006 16.5018C16.9352 16.0675 17.2021 15.6317 17.4023 15.118C17.5944 14.6211 17.7262 14.0532 17.7653 13.2218C17.8027 12.3885 17.8125 12.1229 17.8125 10.0011C17.8125 7.87926 17.8027 7.61301 17.7653 6.77965C17.7262 5.94793 17.5944 5.38027 17.4023 4.88355C17.2021 4.36965 16.9352 3.93379 16.5006 3.49949C16.0661 3.06496 15.6315 2.79801 15.1172 2.59871C14.6191 2.40543 14.0511 2.27371 13.2194 2.23566C12.386 2.19777 12.1207 2.18848 9.99828 2.18848H10.0007ZM9.29984 3.59637C9.50789 3.59605 9.74 3.59637 10.0007 3.59637C12.0867 3.59637 12.3339 3.60387 13.1577 3.64129C13.9194 3.67613 14.3328 3.8034 14.6082 3.91035C14.9728 4.05191 15.2327 4.22121 15.506 4.49473C15.7795 4.76816 15.9487 5.02855 16.0906 5.39316C16.1976 5.66816 16.325 6.0816 16.3597 6.84332C16.3971 7.66691 16.4052 7.91426 16.4052 9.99926C16.4052 12.0843 16.3971 12.3317 16.3597 13.1552C16.3248 13.9169 16.1976 14.3304 16.0906 14.6054C15.9491 14.97 15.7795 15.2296 15.506 15.5029C15.2326 15.7764 14.973 15.9456 14.6082 16.0872C14.3331 16.1946 13.9194 16.3216 13.1577 16.3564C12.3341 16.3939 12.0867 16.402 10.0007 16.402C7.91461 16.402 7.66734 16.3939 6.84383 16.3564C6.08211 16.3213 5.66867 16.194 5.39305 16.0871C5.02852 15.9454 4.76805 15.7762 4.49461 15.5028C4.22117 15.2293 4.05195 14.9696 3.91 14.6048C3.80305 14.3297 3.67562 13.9163 3.64094 13.1546C3.60352 12.331 3.59602 12.0836 3.59602 9.9973C3.59602 7.91098 3.60352 7.66496 3.64094 6.84137C3.67578 6.07965 3.80305 5.66621 3.91 5.39082C4.05164 5.02621 4.22117 4.76582 4.49469 4.49238C4.7682 4.21895 5.02852 4.04965 5.39312 3.90777C5.66852 3.80035 6.08211 3.6734 6.84383 3.6384C7.56453 3.60582 7.84383 3.59605 9.29984 3.59441V3.59637ZM14.171 4.89355C13.6534 4.89355 13.2335 5.31309 13.2335 5.83074C13.2335 6.34832 13.6534 6.76824 14.171 6.76824C14.6886 6.76824 15.1085 6.34832 15.1085 5.83074C15.1085 5.31316 14.6886 4.89324 14.171 4.89324V4.89355ZM10.0007 5.98895C7.78508 5.98895 5.98867 7.78535 5.98867 10.0011C5.98867 12.2168 7.78508 14.0123 10.0007 14.0123C12.2164 14.0123 14.0122 12.2168 14.0122 10.0011C14.0122 7.78543 12.2163 5.98895 10.0005 5.98895H10.0007ZM10.0007 7.39684C11.4389 7.39684 12.6049 8.5627 12.6049 10.0011C12.6049 11.4393 11.4389 12.6053 10.0007 12.6053C8.5625 12.6053 7.39656 11.4393 7.39656 10.0011C7.39656 8.5627 8.56242 7.39684 10.0007 7.39684Z" fill="white"/>
<defs>
<radialGradient id="paint0_radial_232_2078" cx="0" cy="0" r="1" gradientUnits="userSpaceOnUse" gradientTransform="translate(5.3125 21.5404) rotate(-90) scale(19.8215 18.4355)">
<stop stop-color="#FFDD55"/>
<stop offset="0.1" stop-color="#FFDD55"/>
<stop offset="0.5" stop-color="#FF543E"/>
<stop offset="1" stop-color="#C837AB"/>
</radialGradient>
<radialGradient id="paint1_radial_232_2078" cx="0" cy="0" r="1" gradientUnits="userSpaceOnUse" gradientTransform="translate(-3.35007 1.44075) rotate(78.68) scale(8.86031 36.5225)">
<stop stop-color="#3771C8"/>
<stop offset="0.128" stop-color="#3771C8"/>
<stop offset="1" stop-color="#6600FF" stop-opacity="0"/>
</radialGradient>
</defs>
</svg>
