<svg width="111" height="37" viewBox="0 0 111 37" fill="none" xmlns="http://www.w3.org/2000/svg">
<path d="M2.016 29V8.14H5.656L13.468 18.752H11.732L19.376 8.14H23.016V29H19.18V12.48L20.664 12.844L12.74 23.4H12.292L4.564 12.844L5.824 12.48V29H2.016ZM27.8482 35.16C27.4375 35.16 27.0362 35.1227 26.6442 35.048C26.2522 34.992 25.8975 34.88 25.5802 34.712V31.66C25.8229 31.716 26.1122 31.772 26.4482 31.828C26.8029 31.884 27.1295 31.912 27.4282 31.912C28.2682 31.912 28.8749 31.716 29.2482 31.324C29.6402 30.9507 29.9855 30.4467 30.2842 29.812L31.2922 27.46L31.2362 30.54L24.6002 13.768H28.5482L33.1962 26.144H31.7962L36.4162 13.768H40.3922L33.7562 30.54C33.3642 31.5107 32.8882 32.3413 32.3282 33.032C31.7682 33.7227 31.1149 34.2453 30.3682 34.6C29.6402 34.9733 28.8002 35.16 27.8482 35.16ZM47.3344 29V19.76L40.3064 8.14H44.6464L50.0224 17.212H48.4824L53.8304 8.14H58.1704L51.1704 19.732V29H47.3344ZM62.1421 29.336C61.0781 29.336 60.1541 29.1587 59.3701 28.804C58.5861 28.4493 57.9794 27.9453 57.5501 27.292C57.1207 26.62 56.9061 25.8453 56.9061 24.968C56.9061 24.128 57.0927 23.3813 57.4661 22.728C57.8394 22.056 58.4181 21.496 59.2021 21.048C59.9861 20.6 60.9754 20.2827 62.1701 20.096L67.1541 19.284V22.084L62.8701 22.812C62.1421 22.9427 61.6007 23.176 61.2461 23.512C60.8914 23.848 60.7141 24.2867 60.7141 24.828C60.7141 25.3507 60.9101 25.7707 61.3021 26.088C61.7127 26.3867 62.2167 26.536 62.8141 26.536C63.5794 26.536 64.2514 26.3773 64.8301 26.06C65.4274 25.724 65.8847 25.2667 66.2021 24.688C66.5381 24.1093 66.7061 23.4747 66.7061 22.784V18.864C66.7061 18.2107 66.4447 17.6693 65.9221 17.24C65.4181 16.792 64.7461 16.568 63.9061 16.568C63.1221 16.568 62.4221 16.7827 61.8061 17.212C61.2087 17.6227 60.7701 18.1733 60.4901 18.864L57.4941 17.408C57.7927 16.6053 58.2594 15.9147 58.8941 15.336C59.5474 14.7387 60.3127 14.272 61.1901 13.936C62.0674 13.6 63.0194 13.432 64.0461 13.432C65.2967 13.432 66.3981 13.6653 67.3501 14.132C68.3021 14.58 69.0394 15.2147 69.5621 16.036C70.1034 16.8387 70.3741 17.7813 70.3741 18.864V29H66.9021V26.396L67.6861 26.34C67.2941 26.9933 66.8274 27.544 66.2861 27.992C65.7447 28.4213 65.1287 28.7573 64.4381 29C63.7474 29.224 62.9821 29.336 62.1421 29.336ZM73.0642 29V13.768H76.5082V17.156L76.2282 16.652C76.5829 15.5133 77.1336 14.72 77.8802 14.272C78.6456 13.824 79.5602 13.6 80.6242 13.6H81.5202V16.848H80.2042C79.1589 16.848 78.3189 17.1747 77.6842 17.828C77.0496 18.4627 76.7322 19.3587 76.7322 20.516V29H73.0642ZM82.8369 29V13.768H86.2809V16.764L86.0009 16.232C86.3556 15.3173 86.9342 14.6267 87.7369 14.16C88.5582 13.6747 89.5102 13.432 90.5929 13.432C91.7129 13.432 92.7022 13.6747 93.5609 14.16C94.4382 14.6453 95.1196 15.3267 95.6049 16.204C96.0902 17.0627 96.3329 18.0613 96.3329 19.2V29H92.6649V20.068C92.6649 19.396 92.5342 18.8173 92.2729 18.332C92.0116 17.8467 91.6476 17.4733 91.1809 17.212C90.7329 16.932 90.2009 16.792 89.5849 16.792C88.9876 16.792 88.4556 16.932 87.9889 17.212C87.5222 17.4733 87.1582 17.8467 86.8969 18.332C86.6356 18.8173 86.5049 19.396 86.5049 20.068V29H82.8369ZM104.531 29.336C102.907 29.336 101.488 28.9533 100.275 28.188C99.0799 27.404 98.2586 26.3493 97.8106 25.024L100.555 23.708C100.947 24.5667 101.488 25.2387 102.179 25.724C102.888 26.2093 103.672 26.452 104.531 26.452C105.203 26.452 105.735 26.3027 106.127 26.004C106.519 25.7053 106.715 25.3133 106.715 24.828C106.715 24.5293 106.631 24.2867 106.463 24.1C106.313 23.8947 106.099 23.7267 105.819 23.596C105.557 23.4467 105.268 23.3253 104.951 23.232L102.459 22.532C101.171 22.1587 100.191 21.5893 99.5186 20.824C98.8652 20.0587 98.5386 19.1533 98.5386 18.108C98.5386 17.1747 98.7719 16.3627 99.2386 15.672C99.7239 14.9627 100.387 14.412 101.227 14.02C102.085 13.628 103.065 13.432 104.167 13.432C105.604 13.432 106.873 13.7773 107.975 14.468C109.076 15.1587 109.86 16.1293 110.327 17.38L107.527 18.696C107.265 18.0053 106.827 17.4547 106.211 17.044C105.595 16.6333 104.904 16.428 104.139 16.428C103.523 16.428 103.037 16.568 102.683 16.848C102.328 17.128 102.151 17.492 102.151 17.94C102.151 18.22 102.225 18.4627 102.375 18.668C102.524 18.8733 102.729 19.0413 102.991 19.172C103.271 19.3027 103.588 19.424 103.943 19.536L106.379 20.264C107.629 20.6373 108.591 21.1973 109.263 21.944C109.953 22.6907 110.299 23.6053 110.299 24.688C110.299 25.6027 110.056 26.4147 109.571 27.124C109.085 27.8147 108.413 28.356 107.555 28.748C106.696 29.14 105.688 29.336 104.531 29.336Z" fill="#25D16F"/>
</svg>
