<svg width="25" height="25" viewBox="0 0 25 25" fill="none" xmlns="http://www.w3.org/2000/svg">
<rect width="24.6667" height="24.6667" rx="12.3333" fill="#00D17E" fill-opacity="0.2"/>
<path d="M11.1667 16.1667L17.0417 10.2917L15.875 9.125L11.1667 13.8333L8.79167 11.4583L7.625 12.625L11.1667 16.1667ZM12.3333 20.6667C11.1806 20.6667 10.0972 20.4479 9.08333 20.0104C8.06944 19.5729 7.1875 18.9792 6.4375 18.2292C5.6875 17.4792 5.09375 16.5972 4.65625 15.5833C4.21875 14.5694 4 13.4861 4 12.3333C4 11.1806 4.21875 10.0972 4.65625 9.08333C5.09375 8.06944 5.6875 7.1875 6.4375 6.4375C7.1875 5.6875 8.06944 5.09375 9.08333 4.65625C10.0972 4.21875 11.1806 4 12.3333 4C13.4861 4 14.5694 4.21875 15.5833 4.65625C16.5972 5.09375 17.4792 5.6875 18.2292 6.4375C18.9792 7.1875 19.5729 8.06944 20.0104 9.08333C20.4479 10.0972 20.6667 11.1806 20.6667 12.3333C20.6667 13.4861 20.4479 14.5694 20.0104 15.5833C19.5729 16.5972 18.9792 17.4792 18.2292 18.2292C17.4792 18.9792 16.5972 19.5729 15.5833 20.0104C14.5694 20.4479 13.4861 20.6667 12.3333 20.6667Z" fill="#25D16F"/>
</svg>
