<svg width="48" height="48" viewBox="0 0 48 48" fill="none" xmlns="http://www.w3.org/2000/svg">
<rect width="48" height="48" rx="8" fill="#006D3F" fill-opacity="0.1"/>
<path d="M14.5 31V15L28.8 21C28.75 21 28.7 21 28.65 21C28.6 21 28.55 21 28.5 21C27.9167 21 27.3667 21.0667 26.85 21.2C26.3333 21.3333 25.8333 21.5167 25.35 21.75L16.5 18V21.5L22.5 23L16.5 24.5V28L21.9 25.7C21.7667 26.0833 21.6667 26.4625 21.6 26.8375C21.5333 27.2125 21.5 27.6 21.5 28C21.5 28 21.5 28.0083 21.5 28.025C21.5 28.0417 21.5 28.05 21.5 28.05L14.5 31ZM28.5 33C27.1167 33 25.9375 32.5125 24.9625 31.5375C23.9875 30.5625 23.5 29.3833 23.5 28C23.5 26.6167 23.9875 25.4375 24.9625 24.4625C25.9375 23.4875 27.1167 23 28.5 23C29.8833 23 31.0625 23.4875 32.0375 24.4625C33.0125 25.4375 33.5 26.6167 33.5 28C33.5 29.3833 33.0125 30.5625 32.0375 31.5375C31.0625 32.5125 29.8833 33 28.5 33ZM30.15 30.35L30.85 29.65L29 27.8V25H28V28.2L30.15 30.35ZM16.5 25.7C16.5 24.9 16.5 24.15 16.5 23.45C16.5 22.75 16.5 22.1833 16.5 21.75V18V21.5V24.5V28V25.7Z" fill="#25D16F"/>
</svg>
