<svg width="108" height="108" viewBox="0 0 108 108" fill="none" xmlns="http://www.w3.org/2000/svg">
<foreignObject x="0" y="-20" width="107.76" height="107.76"><div xmlns="http://www.w3.org/1999/xhtml" style="backdrop-filter:blur(10px);clip-path:url(#bgblur_0_232_1842_clip_path);height:100%;width:100%"></div></foreignObject><g data-figma-bg-blur-radius="20">
<rect x="20" width="61.6" height="61.6" rx="16" fill="white" fill-opacity="0.4"/>
<rect x="20.5" y="0.5" width="60.6" height="60.6" rx="15.5" stroke="white" stroke-opacity="0.5"/>
<g clip-path="url(#clip1_232_1842)">
<path d="M50.7996 15.39C46.7136 15.39 42.7913 17.0146 39.9043 19.9034C37.0144 22.7935 35.3905 26.7129 35.3896 30.8C35.3896 34.8853 37.0149 38.8077 39.9043 41.6966C42.7913 44.5854 46.7136 46.21 50.7996 46.21C54.8857 46.21 58.808 44.5854 61.695 41.6966C64.5844 38.8077 66.2096 34.8853 66.2096 30.8C66.2096 26.7147 64.5844 22.7923 61.695 19.9034C58.808 17.0146 54.8857 15.39 50.7996 15.39Z" fill="url(#paint0_linear_232_1842)"/>
<path d="M42.3651 30.6372C46.8581 28.6802 49.8534 27.3899 51.351 26.7664C55.6321 24.9863 56.5206 24.6772 57.1009 24.6667C57.2285 24.6647 57.5126 24.6962 57.698 24.8461C57.8521 24.9725 57.8955 25.1434 57.9171 25.2635C57.9364 25.3834 57.9629 25.6567 57.9412 25.87C57.7101 28.3067 56.706 34.2198 56.1956 36.9491C55.9813 38.1039 55.5551 38.491 55.1433 38.5288C54.2476 38.6112 53.5686 37.9375 52.7018 37.3695C51.3462 36.4803 50.5805 35.927 49.2635 35.0594C47.7417 34.0568 48.7289 33.5057 49.5957 32.6051C49.8221 32.3694 53.7661 28.783 53.8407 28.4577C53.8504 28.417 53.86 28.2653 53.7685 28.1854C53.6794 28.1052 53.547 28.1326 53.4507 28.1543C53.3134 28.1851 51.1488 29.6173 46.9496 32.4506C46.3356 32.8729 45.7794 33.0788 45.2785 33.0679C44.7296 33.0561 43.6701 32.7568 42.8828 32.5011C41.9196 32.1874 41.1515 32.0215 41.219 31.4886C41.2527 31.2113 41.6355 30.9274 42.3651 30.6372Z" fill="white"/>
</g>
<g filter="url(#filter1_dd_232_1842)">
<rect x="20" width="67.76" height="67.76" rx="16" fill="white" fill-opacity="0.01" shape-rendering="crispEdges"/>
</g>
</g>
<defs>
<clipPath id="bgblur_0_232_1842_clip_path" transform="translate(0 20)"><rect x="20" width="61.6" height="61.6" rx="16"/>
</clipPath><filter id="filter1_dd_232_1842" x="0" y="0" width="107.76" height="107.76" filterUnits="userSpaceOnUse" color-interpolation-filters="sRGB">
<feFlood flood-opacity="0" result="BackgroundImageFix"/>
<feColorMatrix in="SourceAlpha" type="matrix" values="0 0 0 0 0 0 0 0 0 0 0 0 0 0 0 0 0 0 127 0" result="hardAlpha"/>
<feMorphology radius="6" operator="erode" in="SourceAlpha" result="effect1_dropShadow_232_1842"/>
<feOffset dy="8"/>
<feGaussianBlur stdDeviation="5"/>
<feComposite in2="hardAlpha" operator="out"/>
<feColorMatrix type="matrix" values="0 0 0 0 0 0 0 0 0 0 0 0 0 0 0 0 0 0 0.1 0"/>
<feBlend mode="normal" in2="BackgroundImageFix" result="effect1_dropShadow_232_1842"/>
<feColorMatrix in="SourceAlpha" type="matrix" values="0 0 0 0 0 0 0 0 0 0 0 0 0 0 0 0 0 0 127 0" result="hardAlpha"/>
<feMorphology radius="5" operator="erode" in="SourceAlpha" result="effect2_dropShadow_232_1842"/>
<feOffset dy="20"/>
<feGaussianBlur stdDeviation="12.5"/>
<feComposite in2="hardAlpha" operator="out"/>
<feColorMatrix type="matrix" values="0 0 0 0 0 0 0 0 0 0 0 0 0 0 0 0 0 0 0.1 0"/>
<feBlend mode="normal" in2="effect1_dropShadow_232_1842" result="effect2_dropShadow_232_1842"/>
<feBlend mode="normal" in="SourceGraphic" in2="effect2_dropShadow_232_1842" result="shape"/>
</filter>
<linearGradient id="paint0_linear_232_1842" x1="50.7996" y1="15.39" x2="50.7996" y2="46.21" gradientUnits="userSpaceOnUse">
<stop stop-color="#2AABEE"/>
<stop offset="1" stop-color="#229ED9"/>
</linearGradient>
<clipPath id="clip1_232_1842">
<rect width="30.82" height="30.82" fill="white" transform="translate(35.3896 15.39)"/>
</clipPath>
</defs>
</svg>
