<svg width="96" height="96" viewBox="0 0 96 96" fill="none" xmlns="http://www.w3.org/2000/svg">
<rect x="20" width="56" height="56" rx="16" fill="white"/>
<rect x="20.5" y="0.5" width="55" height="55" rx="15.5" stroke="white" stroke-opacity="0.5"/>
<g filter="url(#filter0_dd_232_2661)">
<rect x="20" width="56" height="56" rx="16" fill="white" fill-opacity="0.01" shape-rendering="crispEdges"/>
</g>
<g clip-path="url(#clip0_232_2661)">
<path d="M36.5126 27.8563C36.512 29.8728 37.043 31.8417 38.0527 33.5771L36.416 39.5066L42.5315 37.9156C44.223 38.8292 46.1181 39.308 48.044 39.3081H48.0491C54.4067 39.3081 59.582 34.1748 59.5847 27.8653C59.586 24.8079 58.3871 21.9329 56.2089 19.77C54.0311 17.6072 51.1347 16.4155 48.0486 16.4141C41.6902 16.4141 36.5153 21.5471 36.5127 27.8563" fill="url(#paint0_linear_232_2661)"/>
<path d="M36.1003 27.8527C36.0997 29.9417 36.6497 31.981 37.6954 33.7786L36 39.9207L42.3348 38.2726C44.0802 39.2168 46.0454 39.7147 48.0451 39.7154H48.0502C54.636 39.7154 59.9972 34.3975 60 27.8621C60.0011 24.6949 58.7591 21.7166 56.5031 19.4761C54.2468 17.2359 51.2468 16.0013 48.0502 16C41.4634 16 36.1029 21.3172 36.1003 27.8527ZM39.8729 33.469L39.6364 33.0965C38.6421 31.5277 38.1172 29.7149 38.118 27.8534C38.1201 22.4213 42.5754 18.0019 48.054 18.0019C50.7071 18.003 53.2005 19.0292 55.0759 20.8912C56.9512 22.7533 57.9831 25.2287 57.9824 27.8614C57.98 33.2935 53.5245 37.7135 48.0502 37.7135H48.0463C46.2638 37.7126 44.5157 37.2376 42.9911 36.34L42.6283 36.1265L38.8691 37.1045L39.8729 33.469Z" fill="url(#paint1_linear_232_2661)"/>
<path d="M45.0638 22.8977C44.8401 22.4044 44.6047 22.3945 44.392 22.3858C44.2178 22.3784 44.0187 22.3789 43.8198 22.3789C43.6206 22.3789 43.2971 22.4532 43.0236 22.7495C42.7499 23.0461 41.9785 23.7627 41.9785 25.2203C41.9785 26.6779 43.0485 28.0866 43.1976 28.2845C43.347 28.482 45.2632 31.5689 48.2981 32.7564C50.8204 33.7433 51.3336 33.547 51.881 33.4975C52.4285 33.4482 53.6477 32.7811 53.8964 32.0892C54.1453 31.3975 54.1453 30.8046 54.0707 30.6807C53.996 30.5572 53.7969 30.4831 53.4983 30.335C53.1997 30.1869 51.7317 29.4701 51.458 29.3712C51.1843 29.2724 50.9853 29.2231 50.7861 29.5198C50.587 29.8159 50.0152 30.4831 49.841 30.6807C49.6669 30.8787 49.4926 30.9034 49.1941 30.7552C48.8953 30.6065 47.9337 30.2941 46.7929 29.2849C45.9052 28.4996 45.306 27.5298 45.1318 27.2331C44.9576 26.937 45.1131 26.7764 45.2629 26.6288C45.397 26.496 45.5615 26.2828 45.711 26.1099C45.8599 25.9369 45.9095 25.8134 46.0091 25.6158C46.1088 25.4181 46.0589 25.2451 45.9844 25.0969C45.9095 24.9487 45.3293 23.4835 45.0638 22.8977Z" fill="white"/>
</g>
<defs>
<filter id="filter0_dd_232_2661" x="0" y="0" width="96" height="96" filterUnits="userSpaceOnUse" color-interpolation-filters="sRGB">
<feFlood flood-opacity="0" result="BackgroundImageFix"/>
<feColorMatrix in="SourceAlpha" type="matrix" values="0 0 0 0 0 0 0 0 0 0 0 0 0 0 0 0 0 0 127 0" result="hardAlpha"/>
<feMorphology radius="6" operator="erode" in="SourceAlpha" result="effect1_dropShadow_232_2661"/>
<feOffset dy="8"/>
<feGaussianBlur stdDeviation="5"/>
<feComposite in2="hardAlpha" operator="out"/>
<feColorMatrix type="matrix" values="0 0 0 0 0 0 0 0 0 0 0 0 0 0 0 0 0 0 0.1 0"/>
<feBlend mode="normal" in2="BackgroundImageFix" result="effect1_dropShadow_232_2661"/>
<feColorMatrix in="SourceAlpha" type="matrix" values="0 0 0 0 0 0 0 0 0 0 0 0 0 0 0 0 0 0 127 0" result="hardAlpha"/>
<feMorphology radius="5" operator="erode" in="SourceAlpha" result="effect2_dropShadow_232_2661"/>
<feOffset dy="20"/>
<feGaussianBlur stdDeviation="12.5"/>
<feComposite in2="hardAlpha" operator="out"/>
<feColorMatrix type="matrix" values="0 0 0 0 0 0 0 0 0 0 0 0 0 0 0 0 0 0 0.1 0"/>
<feBlend mode="normal" in2="effect1_dropShadow_232_2661" result="effect2_dropShadow_232_2661"/>
<feBlend mode="normal" in="SourceGraphic" in2="effect2_dropShadow_232_2661" result="shape"/>
</filter>
<linearGradient id="paint0_linear_232_2661" x1="48.0004" y1="39.5066" x2="48.0004" y2="16.4141" gradientUnits="userSpaceOnUse">
<stop stop-color="#1FAF38"/>
<stop offset="1" stop-color="#60D669"/>
</linearGradient>
<linearGradient id="paint1_linear_232_2661" x1="48" y1="39.9207" x2="48" y2="16" gradientUnits="userSpaceOnUse">
<stop stop-color="#F9F9F9"/>
<stop offset="1" stop-color="white"/>
</linearGradient>
<clipPath id="clip0_232_2661">
<rect width="24" height="24" fill="white" transform="translate(36 16)"/>
</clipPath>
</defs>
</svg>
